<svg width="40" height="40" viewBox="0 0 40 40" fill="none" xmlns="http://www.w3.org/2000/svg">
<path d="M13.3319 3.99812V1.32812H8.00187V3.99812H10.6719H13.3319ZM32.0019 3.99812V1.32812H26.6719V3.99812H29.3319H32.0019ZM5.33187 3.99812H8.00187V6.66812H5.33187V3.99812ZM13.3319 3.99812H16.0019V6.66812H13.3319V3.99812ZM24.0019 3.99812H26.6719V6.66812H24.0019V3.99812ZM32.0019 3.99812H34.6719V6.66812H32.0019V3.99812ZM2.67188 6.66812H5.34188V9.33812H2.67188V6.66812ZM16.0019 6.66812H18.6719V9.33812H16.0019V6.66812ZM21.3319 6.66812H24.0019V9.33812H21.3319V6.66812ZM34.6719 6.66812H37.3419V9.33812H34.6719V6.66812Z" fill="#65E52A"/>
<path d="M18.67 9.32812H21.34V11.9981H18.67V9.32812ZM37.33 9.32812V19.9981H40V9.32812H37.33ZM2.67 14.6681V9.32812H0V19.9981H2.67V17.3281V14.6681ZM2.67 19.9981H5.34V22.6681H2.67V19.9981ZM34.67 19.9981H37.34V22.6681H34.67V19.9981ZM5.33 22.6681H8V25.3381H5.33V22.6681ZM32 22.6681H34.67V25.3381H32V22.6681ZM8 25.3281H10.67V27.9981H8V25.3281ZM29.33 25.3281H32V27.9981H29.33V25.3281ZM10.67 27.9981H13.34V30.6681H10.67V27.9981ZM26.67 27.9981H29.34V30.6681H26.67V27.9981ZM13.33 30.6681H16V33.3381H13.33V30.6681ZM24 30.6681H26.67V33.3381H24V30.6681ZM16 33.3281H18.67V35.9981H16V33.3281ZM21.33 33.3281H24V35.9981H21.33V33.3281ZM18.67 35.9981H21.34V38.6681H18.67V35.9981Z" fill="#65E52A"/>
</svg>
