<svg width="24" height="31" viewBox="0 0 24 31" fill="none" xmlns="http://www.w3.org/2000/svg">
<path d="M21.33 10.2849H24L24 12.8586H21.33L21.33 10.2849ZM0 10.2849H2.67L2.67 12.8586H0L0 10.2849ZM18.67 7.71128L21.34 7.71128V10.2849H18.67V7.71128ZM2.67 7.71128L5.34 7.71128L5.34 10.2849H2.67L2.67 7.71128ZM16 5.13764H18.67V7.71128H16L16 5.13764ZM10.67 7.71128L10.67 31L13.33 31V28.6866L13.33 5.13764H10.67L10.67 7.71128ZM5.33 5.13764H8V7.71128H5.33V5.13764ZM13.33 2.57364L16 2.57364V5.14728L13.33 5.14728V2.57364ZM8 2.57364L10.67 2.57364V5.14728L8 5.14728L8 2.57364ZM10.67 0L13.34 0V2.57364L10.67 2.57364V0Z" fill="#65E52A"/>
</svg>
