<svg width="34" height="33" viewBox="0 0 34 33" fill="none" xmlns="http://www.w3.org/2000/svg">
<path d="M11.1143 10.4932L11.1143 7.67586L13.8955 7.67586L13.8955 10.4932L11.1143 10.4932ZM11.1143 33L11.1143 30.1827L13.8955 30.1827L13.8955 33L11.1143 33ZM8.33315 13.2999L8.33315 10.4826L11.1143 10.4826L11.1143 13.2999L8.33315 13.2999ZM8.33316 30.1827L8.33316 27.3654L11.1143 27.3654L11.1143 30.1827L8.33316 30.1827ZM5.55196 16.1172L5.55196 13.2999L8.33315 13.2999L8.33315 16.1172L5.55196 16.1172ZM8.33316 21.7413L33.5 21.7413L33.5 18.9345L31 18.9345L5.55196 18.9346L5.55196 21.7413L8.33316 21.7413ZM5.55196 27.3759L5.55196 24.5586L8.33316 24.5586L8.33316 27.3759L5.55196 27.3759ZM2.78119 18.9346L2.78119 16.1172L5.56238 16.1172L5.56238 18.9346L2.78119 18.9346ZM2.78119 24.5586L2.78119 21.7413L5.56238 21.7413L5.56238 24.5586L2.78119 24.5586ZM-4.92133e-07 21.7413L-6.15282e-07 18.924L2.78119 18.924L2.78119 21.7413L-4.92133e-07 21.7413Z" fill="#65E52A"/>
<path d="M33.5 18.9345L33.5 -1.46433e-06L31 -1.35505e-06L31 18.9345L33.5 18.9345Z" fill="#65E52A"/>
</svg>
