<svg width="26" height="26" viewBox="0 0 26 26" fill="none" xmlns="http://www.w3.org/2000/svg">
<path d="M21.3138 21.3147L4.68493 4.68643L4.68138 4.68237C4.59135 4.59307 4.48462 4.52238 4.36727 4.47434C4.24993 4.42629 4.12427 4.40183 3.99747 4.40235C3.87067 4.40287 3.74521 4.42836 3.62826 4.47736C3.51131 4.52637 3.40516 4.59792 3.31587 4.68795C3.22658 4.77798 3.15589 4.88471 3.10784 5.00206C3.0598 5.1194 3.03534 5.24506 3.03586 5.37186C3.0369 5.62794 3.13964 5.87312 3.32146 6.05346L4.77735 7.50936C3.01175 8.71859 1.49199 10.2523 0.298955 12.0289C0.104133 12.3165 0 12.656 0 13.0034C0 13.3508 0.104133 13.6902 0.298955 13.9779C3.34431 18.4852 8.17208 21.1258 12.9999 21.0928C14.5636 21.0985 16.117 20.8382 17.5935 20.323L19.9503 22.6797C20.1319 22.8555 20.3751 22.9529 20.6278 22.9512C20.8805 22.9495 21.1224 22.8487 21.3016 22.6705C21.4808 22.4924 21.5829 22.251 21.586 21.9984C21.5891 21.7457 21.493 21.5019 21.3183 21.3193L21.3138 21.3147ZM12.9999 18.472C12.0852 18.4717 11.1852 18.2421 10.3821 17.8043C9.579 17.3665 8.89845 16.7344 8.40261 15.9658C7.90678 15.1971 7.61149 14.3165 7.54372 13.4043C7.47595 12.4922 7.63786 11.5776 8.01466 10.7441L9.53556 12.265C9.41305 12.8423 9.43672 13.441 9.60442 14.0068C9.77212 14.5726 10.0785 15.0876 10.4958 15.5049C10.9131 15.9222 11.428 16.2286 11.9939 16.3963C12.5597 16.564 13.1584 16.5876 13.7357 16.4651L15.2566 17.986C14.5477 18.3075 13.7782 18.4732 12.9999 18.472ZM25.7008 12.0263C22.6554 7.51647 17.8276 4.87584 12.9999 4.90885C11.4361 4.90319 9.88269 5.16351 8.40618 5.67869L10.7421 8.01463C11.7558 7.55591 12.8851 7.41701 13.9797 7.61644C15.0743 7.81586 16.0821 8.34414 16.8688 9.13086C17.6555 9.91759 18.1838 10.9254 18.3832 12.02C18.5827 13.1146 18.4438 14.2439 17.9851 15.2576L21.2218 18.4944C22.9878 17.2853 24.5077 15.7516 25.7008 13.9748C25.8955 13.6872 25.9995 13.3479 25.9995 13.0006C25.9995 12.6533 25.8955 12.3139 25.7008 12.0263Z" fill="#65E52A"/>
<path d="M13.0014 9.46094C12.7542 9.46097 12.5075 9.48684 12.2656 9.53813L16.4657 13.7377C16.5753 13.2217 16.5681 12.6878 16.4449 12.1749C16.3216 11.6621 16.0854 11.1832 15.7534 10.7733C15.4214 10.3634 15.002 10.0329 14.5259 9.80582C14.0497 9.57877 13.5289 9.46094 13.0014 9.46094Z" fill="#65E52A"/>
</svg>
