<svg width="43" height="43" viewBox="0 0 43 43" fill="none" xmlns="http://www.w3.org/2000/svg">
<path d="M19.6511 3H16.849V0H25.2448V3H22.4427H19.6511ZM28.0469 3H25.2448V6H28.0469V3ZM16.849 3H14.0469V6H16.849V3Z" fill="#65E52A"/>
<path d="M31.276 20.2365H4.9632V17.3871H10.8178V6H13.7341V17.3871H28.3596V6H31.276V17.3871H37.1305V20.2365H34.2033H31.276ZM4.9632 20.2365V40.1506H2.04688V20.2365H4.9632ZM22.505 28.7742V34.4624H19.5887V25.9247H22.505V28.7742ZM37.1305 34.4624V20.2365H40.0469V40.1506H37.1305V37.3118V34.4624ZM10.8178 40.1506H37.1305V43H4.9632V40.1506H7.8905H10.8178Z" fill="#65E52A"/>
</svg>
