<svg width="43" height="35" viewBox="0 0 43 35" fill="none" xmlns="http://www.w3.org/2000/svg">
<path d="M8.60085 2.92031H40.1306V0H2.87109V2.92031H5.7306H8.60085ZM40.1306 2.92031V32.0797H43.0009V2.92031H40.1306ZM5.7306 5.82969H8.60085V8.75H5.7306V5.82969ZM34.4009 5.82969H37.2711V8.75H34.4009V5.82969ZM8.60085 8.75H11.4711V11.6703H8.60085V8.75ZM11.4711 11.6703H14.3413V14.5906H11.4711V11.6703ZM28.6711 11.6703H31.5414V14.5906H28.6711V11.6703ZM31.5306 8.75H34.4009V11.6703H31.5306V8.75Z" fill="#65E52A"/>
<path d="M14.3298 14.5813H17.2V17.5016H14.3298V14.5813ZM17.2 17.5016H20.0703V20.4219H17.2V17.5016ZM22.9298 17.5016H25.8V20.4219H22.9298V17.5016ZM25.8 14.5813H28.6703V17.5016H25.8V14.5813ZM20.0703 20.4219H22.9405V23.3422H20.0703V20.4219ZM2.87025 26.2516V2.92188H0V32.0813H2.87025V29.1719V26.2516ZM34.4 32.0813H2.87025V35.0016H40.1298V32.0813H37.2703H34.4Z" fill="#65E52A"/>
</svg>
