<svg width="20" height="20" viewBox="0 0 20 20" fill="none" xmlns="http://www.w3.org/2000/svg">
<g clip-path="url(#clip0_4024_171)">
<path d="M7.36842 0H10.5263V1.05263H12.6316V2.10526H14.7368V3.15789H16.8421V5.26316H17.8947V7.36842H18.9474V9.47368H20V12.6316H17.8947V10.5263H16.8421V9.47368H15.7895V8.42105H13.6842V7.36842H12.6316V6.31579H11.5789V4.21053H10.5263V3.15789H9.47368V2.10526H7.36842M10.5263 7.36842H11.5789V8.42105H12.6316V9.47368H11.5789V10.5263H10.5263V11.5789H9.47368V12.6316H8.42105V13.6842H7.36842V14.7368H6.31579V15.7895H5.26316V16.8421H4.21053V17.8947H3.15789V18.9474H2.10526V20H1.05263V18.9474H0V17.8947H1.05263V16.8421H2.10526V15.7895H3.15789V14.7368H4.21053V13.6842H5.26316V12.6316H6.31579V11.5789H7.36842V10.5263H8.42105V9.47368H9.47368V8.42105H10.5263" fill="#65E52A"/>
</g>
<defs>
<clipPath id="clip0_4024_171">
<rect width="20" height="20" fill="white"/>
</clipPath>
</defs>
</svg>
