<svg width="40" height="40" viewBox="0 0 40 40" fill="none" xmlns="http://www.w3.org/2000/svg">
<g clip-path="url(#clip0_4028_2476)">
<path d="M21.33 2.67H24V0H16V2.67H18.67H21.33ZM13.33 2.67H16V5.34H13.33V2.67ZM24 2.67H26.67V5.34H24V2.67ZM26.67 10.67V13.33H29.33V5.33H26.67V8V10.67ZM13.33 10.67V5.33H10.67V13.33H13.33V10.67ZM13.33 13.33H16V16H13.33V13.33ZM24 13.33H26.67V16H24V13.33ZM18.67 16H16V18.67H24V16H21.33H18.67ZM13.33 21.33V18.67H8V21.33H10.67H13.33ZM29.33 18.67H26.67V21.33H32V18.67H29.33ZM5.33 21.33H8V24H5.33V21.33ZM32 21.33H34.67V24H32V21.33ZM37.33 24H34.67V29.33H37.33V26.67V24ZM5.33 26.67V24H2.67V29.33H5.33V26.67ZM37.33 29.33V37.33H40V29.33H37.33ZM2.67 32V29.33H0V37.33H2.67V34.67V32ZM32 37.33H2.67V40H37.33V37.33H34.67H32Z" fill="#65E52A"/>
</g>
<defs>
<clipPath id="clip0_4028_2476">
<rect width="40" height="40" fill="white"/>
</clipPath>
</defs>
</svg>
