<svg width="40" height="40" viewBox="0 0 40 40" fill="none" xmlns="http://www.w3.org/2000/svg">
<g clip-path="url(#clip0_4028_2479)">
<path d="M11.2013 9.60786H15.9938V7.99956H7.99551V9.60786H9.60381H11.2013ZM27.198 9.60786H32.0013V7.99956H24.003V9.60786H25.6005H27.198ZM6.398 9.60786H7.99551V11.2054H6.398V9.60786ZM15.9938 9.60786H17.5914V11.2054H15.9938V9.60786ZM22.3947 9.60786H23.9922V11.2054H22.3947V9.60786ZM32.0013 9.60786H33.5988V11.2054H32.0013V9.60786ZM11.2013 14.4004H15.9938V12.8029H7.99551V14.4004H9.60381H11.2013ZM27.198 14.4004H32.0013V12.8029H24.003V14.4004H25.6005H27.198ZM6.398 14.4004H7.99551V15.9979H6.398V14.4004ZM15.9938 14.4004H17.5914V15.9979H15.9938V14.4004ZM22.3947 14.4004H23.9922V15.9979H22.3947V14.4004ZM32.0013 14.4004H33.5988V15.9979H32.0013V14.4004ZM11.2013 19.2037H15.9938V17.6062H7.99551V19.2037H9.60381H11.2013ZM27.198 19.2037H32.0013V17.6062H24.003V19.2037H25.6005H27.198ZM6.398 19.2037H7.99551V20.8012H6.398V19.2037ZM15.9938 19.2037H17.5914V20.8012H15.9938V19.2037ZM22.3947 19.2037H23.9922V20.8012H22.3947V19.2037ZM32.0013 19.2037H33.5988V20.8012H32.0013V19.2037ZM11.2013 24.007H15.9938V22.3987H7.99551V24.007H9.60381H11.2013ZM27.198 24.007H32.0013V22.3987H24.003V24.007H25.6005H27.198ZM6.398 24.007H7.99551V25.6045H6.398V24.007ZM15.9938 24.007H17.5914V25.6045H15.9938V24.007ZM22.3947 24.007H23.9922V25.6045H22.3947V24.007ZM32.0013 24.007H33.5988V25.6045H32.0013V24.007ZM11.2013 4.80454H15.9938V3.20703H7.99551V4.80454H9.60381H11.2013ZM27.198 4.80454H32.0013V3.20703H24.003V4.80454H25.6005H27.198ZM6.398 4.80454H7.99551V6.40205H6.398V4.80454ZM17.6022 6.40205H19.1997V4.80454H15.9938V6.40205H17.6022ZM24.003 6.40205V4.80454H20.7972V6.40205H22.3947H24.003ZM32.0013 4.80454H33.5988V6.40205H32.0013V4.80454ZM4.80049 6.40205H6.398V7.99956H4.80049V6.40205ZM33.5988 6.40205H35.1963V7.99956H33.5988V6.40205ZM19.1997 9.60786V30.3971H20.7972V6.40205H19.1997V7.99956V9.60786ZM35.1963 11.2054V30.3971H33.5988V32.0054H36.7939V11.2054H38.3914V9.60786H36.7939V7.99956H35.1963V9.60786V11.2054ZM3.20298 12.8029V32.0054H6.398V30.3971H4.80049V7.99956H3.20298V9.60786H1.60547V11.2054H3.20298V12.8029Z" fill="#65E52A"/>
<path d="M38.3903 11.2031V33.6006H39.9986V11.2031H38.3903ZM15.9928 28.7973H6.39693V30.3948H17.6011V28.7973H15.9928ZM32.0003 28.7973H22.3936V30.3948H33.5978V28.7973H32.0003ZM1.6044 30.3948V11.2031H-0.00390625V33.6006H1.6044V32.0031V30.3948ZM17.6011 30.3948H19.1986V31.9923H17.6011V30.3948ZM20.7961 30.3948H22.3936V31.9923H20.7961V30.3948ZM19.1986 32.0031H20.7961V33.6006H19.1986V32.0031ZM15.9928 33.6006H1.6044V35.1982H17.6011V33.6006H15.9928ZM35.1953 33.6006H22.3936V35.1982H38.3903V33.6006H36.7928H35.1953ZM19.1986 35.1982H17.6011V36.7957H22.3936V35.1982H20.7961H19.1986Z" fill="#65E52A"/>
</g>
<defs>
<clipPath id="clip0_4028_2479">
<rect width="40" height="40" fill="white"/>
</clipPath>
</defs>
</svg>
