<svg width="20" height="20" viewBox="0 0 20 20" fill="none" xmlns="http://www.w3.org/2000/svg">
<g clip-path="url(#clip0_4024_169)">
<path d="M10 20C15.514 20 20 15.514 20 10C20 4.486 15.514 0 10 0C4.486 0 0 4.486 0 10C0 15.514 4.486 20 10 20ZM13.493 7C13.6924 6.99491 13.8908 7.02979 14.0765 7.10259C14.2621 7.17538 14.4314 7.28463 14.5742 7.42387C14.717 7.56311 14.8304 7.72954 14.9079 7.91333C14.9853 8.09712 15.0252 8.29457 15.0251 8.49401C15.0251 8.69346 14.9851 8.89088 14.9075 9.07462C14.8299 9.25836 14.7163 9.42471 14.5735 9.56386C14.4306 9.703 14.2613 9.81213 14.0755 9.8848C13.8898 9.95748 13.6914 9.99223 13.492 9.987C13.1026 9.97679 12.7326 9.8149 12.4608 9.53582C12.189 9.25674 12.037 8.88255 12.0371 8.49301C12.0373 8.10347 12.1895 7.72939 12.4615 7.45049C12.7335 7.17159 13.1036 7.00995 13.493 7ZM9.192 13.919C9.72533 14.0262 10.2747 14.0262 10.808 13.919C11.062 13.8663 11.312 13.7887 11.558 13.686C11.792 13.586 12.022 13.462 12.237 13.318C12.4457 13.1753 12.6427 13.0123 12.828 12.829C13.0113 12.6463 13.1743 12.449 13.317 12.237L14.975 13.354C14.5445 13.9933 13.9948 14.5437 13.356 14.975C12.7057 15.4139 11.9755 15.7211 11.207 15.879C10.4103 16.0395 9.58957 16.0391 8.793 15.878C8.02409 15.7228 7.29385 15.4158 6.645 14.975C6.00699 14.5417 5.45694 13.9913 5.024 13.353L6.682 12.236C6.826 12.448 6.98867 12.6447 7.17 12.826C7.72255 13.3803 8.42558 13.7603 9.192 13.919ZM6.5 7C6.69705 7.00007 6.89215 7.03894 7.07418 7.11441C7.2562 7.18988 7.42158 7.30046 7.56087 7.43984C7.70016 7.57922 7.81063 7.74467 7.88597 7.92675C7.96132 8.10882 8.00007 8.30395 8 8.501C7.99993 8.69805 7.96106 8.89315 7.88559 9.07518C7.81012 9.2572 7.69954 9.42258 7.56016 9.56187C7.42078 9.70116 7.25533 9.81163 7.07325 9.88697C6.89118 9.96232 6.69605 10.0011 6.499 10.001C6.10104 10.0009 5.71944 9.84265 5.43813 9.56116C5.15683 9.27967 4.99887 8.89796 4.999 8.5C4.99913 8.10204 5.15735 7.72044 5.43884 7.43913C5.72033 7.15783 6.10204 6.99987 6.5 7Z" fill="#65E52A"/>
</g>
<defs>
<clipPath id="clip0_4024_169">
<rect width="20" height="20" fill="white"/>
</clipPath>
</defs>
</svg>
