<svg width="20" height="20" viewBox="0 0 20 20" fill="none" xmlns="http://www.w3.org/2000/svg">
<rect width="20" height="20" fill="#65E52A"/>
<path d="M15.8559 7.003L15.8559 5L18 5L18 7.003L15.8559 7.003ZM5.1441 12.997L5.1441 10.994L7.2882 10.994L7.28821 12.997L5.1441 12.997ZM13.7118 8.9985L13.7118 6.9955L15.8559 6.9955L15.8559 8.9985L13.7118 8.9985ZM3 10.994L3 8.991L5.1441 8.991L5.1441 10.994L3 10.994ZM11.5677 11.0015L11.5677 8.9985L13.7118 8.9985L13.7118 11.0015L11.5677 11.0015ZM9.43162 13.0045L9.43162 11.0015L11.5757 11.0015L11.5757 13.0045L9.43162 13.0045ZM7.28752 15L7.28821 12.997L9.43162 12.997L9.43162 15L7.28752 15Z" fill="black"/>
</svg>
