<svg width="303" height="110" viewBox="0 0 303 110" fill="none" xmlns="http://www.w3.org/2000/svg">
<g clip-path="url(#clip0_4026_1283)">
<rect x="-0.46875" y="-0.46875" width="0.934259" height="0.934259" rx="0.467129" fill="#65E52A"/>
<rect x="12.5312" y="-0.46875" width="0.934259" height="0.934259" rx="0.467129" fill="#65E52A"/>
<rect x="25.5312" y="-0.46875" width="0.934259" height="0.934259" rx="0.467129" fill="#65E52A"/>
<rect x="38.5312" y="-0.46875" width="0.934259" height="0.934259" rx="0.467129" fill="#65E52A"/>
<rect x="51.5312" y="-0.46875" width="0.934259" height="0.934259" rx="0.467129" fill="#65E52A"/>
<rect x="64.5312" y="-0.46875" width="0.934259" height="0.934259" rx="0.467129" fill="#65E52A"/>
<rect x="77.5312" y="-0.46875" width="0.934259" height="0.934259" rx="0.467129" fill="#65E52A"/>
<rect x="90.5312" y="-0.46875" width="0.934259" height="0.934259" rx="0.467129" fill="#65E52A"/>
<rect x="103.531" y="-0.46875" width="0.934259" height="0.934259" rx="0.467129" fill="#65E52A"/>
<rect x="116.531" y="-0.46875" width="0.934259" height="0.934259" rx="0.467129" fill="#65E52A"/>
<rect x="129.531" y="-0.46875" width="0.934259" height="0.934259" rx="0.467129" fill="#65E52A"/>
<rect x="142.531" y="-0.46875" width="0.934259" height="0.934259" rx="0.467129" fill="#65E52A"/>
<rect x="155.531" y="-0.46875" width="0.934259" height="0.934259" rx="0.467129" fill="#65E52A"/>
<rect x="168.531" y="-0.46875" width="0.934259" height="0.934259" rx="0.467129" fill="#65E52A"/>
<rect x="181.531" y="-0.46875" width="0.934259" height="0.934259" rx="0.467129" fill="#65E52A"/>
<rect x="194.531" y="-0.46875" width="0.934259" height="0.934259" rx="0.467129" fill="#65E52A"/>
<rect x="207.531" y="-0.46875" width="0.934259" height="0.934259" rx="0.467129" fill="#65E52A"/>
<rect x="220.531" y="-0.46875" width="0.934259" height="0.934259" rx="0.467129" fill="#65E52A"/>
<rect x="233.531" y="-0.46875" width="0.934259" height="0.934259" rx="0.467129" fill="#65E52A"/>
<rect x="246.531" y="-0.46875" width="0.934259" height="0.934259" rx="0.467129" fill="#65E52A"/>
<rect x="259.531" y="-0.46875" width="0.934259" height="0.934259" rx="0.467129" fill="#65E52A"/>
<rect x="272.531" y="-0.46875" width="0.934259" height="0.934259" rx="0.467129" fill="#65E52A"/>
<rect x="285.531" y="-0.46875" width="0.934259" height="0.934259" rx="0.467129" fill="#65E52A"/>
<rect x="298.531" y="-0.46875" width="0.934259" height="0.934259" rx="0.467129" fill="#65E52A"/>
<rect x="-0.46875" y="12.5312" width="0.934259" height="0.934259" rx="0.467129" fill="#65E52A"/>
<rect x="12.5312" y="12.5312" width="0.934259" height="0.934259" rx="0.467129" fill="#65E52A"/>
<rect x="25.5312" y="12.5312" width="0.934259" height="0.934259" rx="0.467129" fill="#65E52A"/>
<rect x="38.5312" y="12.5312" width="0.934259" height="0.934259" rx="0.467129" fill="#65E52A"/>
<rect x="51.5312" y="12.5312" width="0.934259" height="0.934259" rx="0.467129" fill="#65E52A"/>
<rect x="64.5312" y="12.5312" width="0.934259" height="0.934259" rx="0.467129" fill="#65E52A"/>
<rect x="77.5312" y="12.5312" width="0.934259" height="0.934259" rx="0.467129" fill="#65E52A"/>
<rect x="90.5312" y="12.5312" width="0.934259" height="0.934259" rx="0.467129" fill="#65E52A"/>
<rect x="103.531" y="12.5312" width="0.934259" height="0.934259" rx="0.467129" fill="#65E52A"/>
<rect x="116.531" y="12.5312" width="0.934259" height="0.934259" rx="0.467129" fill="#65E52A"/>
<rect x="129.531" y="12.5312" width="0.934259" height="0.934259" rx="0.467129" fill="#65E52A"/>
<rect x="142.531" y="12.5312" width="0.934259" height="0.934259" rx="0.467129" fill="#65E52A"/>
<rect x="155.531" y="12.5312" width="0.934259" height="0.934259" rx="0.467129" fill="#65E52A"/>
<rect x="168.531" y="12.5312" width="0.934259" height="0.934259" rx="0.467129" fill="#65E52A"/>
<rect x="181.531" y="12.5312" width="0.934259" height="0.934259" rx="0.467129" fill="#65E52A"/>
<rect x="194.531" y="12.5312" width="0.934259" height="0.934259" rx="0.467129" fill="#65E52A"/>
<rect x="207.531" y="12.5312" width="0.934259" height="0.934259" rx="0.467129" fill="#65E52A"/>
<rect x="220.531" y="12.5312" width="0.934259" height="0.934259" rx="0.467129" fill="#65E52A"/>
<rect x="233.531" y="12.5312" width="0.934259" height="0.934259" rx="0.467129" fill="#65E52A"/>
<rect x="246.531" y="12.5312" width="0.934259" height="0.934259" rx="0.467129" fill="#65E52A"/>
<rect x="259.531" y="12.5312" width="0.934259" height="0.934259" rx="0.467129" fill="#65E52A"/>
<rect x="272.531" y="12.5312" width="0.934259" height="0.934259" rx="0.467129" fill="#65E52A"/>
<rect x="285.531" y="12.5312" width="0.934259" height="0.934259" rx="0.467129" fill="#65E52A"/>
<rect x="298.531" y="12.5312" width="0.934259" height="0.934259" rx="0.467129" fill="#65E52A"/>
<rect x="-0.46875" y="25.5312" width="0.934259" height="0.934259" rx="0.467129" fill="#65E52A"/>
<rect x="12.5312" y="25.5312" width="0.934259" height="0.934259" rx="0.467129" fill="#65E52A"/>
<rect x="25.5312" y="25.5312" width="0.934259" height="0.934259" rx="0.467129" fill="#65E52A"/>
<rect x="38.5312" y="25.5312" width="0.934259" height="0.934259" rx="0.467129" fill="#65E52A"/>
<rect x="51.5312" y="25.5312" width="0.934259" height="0.934259" rx="0.467129" fill="#65E52A"/>
<rect x="64.5312" y="25.5312" width="0.934259" height="0.934259" rx="0.467129" fill="#65E52A"/>
<rect x="77.5312" y="25.5312" width="0.934259" height="0.934259" rx="0.467129" fill="#65E52A"/>
<rect x="90.5312" y="25.5312" width="0.934259" height="0.934259" rx="0.467129" fill="#65E52A"/>
<rect x="103.531" y="25.5312" width="0.934259" height="0.934259" rx="0.467129" fill="#65E52A"/>
<rect x="116.531" y="25.5312" width="0.934259" height="0.934259" rx="0.467129" fill="#65E52A"/>
<rect x="129.531" y="25.5312" width="0.934259" height="0.934259" rx="0.467129" fill="#65E52A"/>
<rect x="142.531" y="25.5312" width="0.934259" height="0.934259" rx="0.467129" fill="#65E52A"/>
<rect x="155.531" y="25.5312" width="0.934259" height="0.934259" rx="0.467129" fill="#65E52A"/>
<rect x="168.531" y="25.5312" width="0.934259" height="0.934259" rx="0.467129" fill="#65E52A"/>
<rect x="181.531" y="25.5312" width="0.934259" height="0.934259" rx="0.467129" fill="#65E52A"/>
<rect x="194.531" y="25.5312" width="0.934259" height="0.934259" rx="0.467129" fill="#65E52A"/>
<rect x="207.531" y="25.5312" width="0.934259" height="0.934259" rx="0.467129" fill="#65E52A"/>
<rect x="220.531" y="25.5312" width="0.934259" height="0.934259" rx="0.467129" fill="#65E52A"/>
<rect x="233.531" y="25.5312" width="0.934259" height="0.934259" rx="0.467129" fill="#65E52A"/>
<rect x="246.531" y="25.5312" width="0.934259" height="0.934259" rx="0.467129" fill="#65E52A"/>
<rect x="259.531" y="25.5312" width="0.934259" height="0.934259" rx="0.467129" fill="#65E52A"/>
<rect x="272.531" y="25.5312" width="0.934259" height="0.934259" rx="0.467129" fill="#65E52A"/>
<rect x="285.531" y="25.5312" width="0.934259" height="0.934259" rx="0.467129" fill="#65E52A"/>
<rect x="298.531" y="25.5312" width="0.934259" height="0.934259" rx="0.467129" fill="#65E52A"/>
<rect x="-0.46875" y="38.5312" width="0.934259" height="0.934259" rx="0.467129" fill="#65E52A"/>
<rect x="12.5312" y="38.5312" width="0.934259" height="0.934259" rx="0.467129" fill="#65E52A"/>
<rect x="25.5312" y="38.5312" width="0.934259" height="0.934259" rx="0.467129" fill="#65E52A"/>
<rect x="38.5312" y="38.5312" width="0.934259" height="0.934259" rx="0.467129" fill="#65E52A"/>
<rect x="51.5312" y="38.5312" width="0.934259" height="0.934259" rx="0.467129" fill="#65E52A"/>
<rect x="64.5312" y="38.5312" width="0.934259" height="0.934259" rx="0.467129" fill="#65E52A"/>
<rect x="77.5312" y="38.5312" width="0.934259" height="0.934259" rx="0.467129" fill="#65E52A"/>
<rect x="90.5312" y="38.5312" width="0.934259" height="0.934259" rx="0.467129" fill="#65E52A"/>
<rect x="103.531" y="38.5312" width="0.934259" height="0.934259" rx="0.467129" fill="#65E52A"/>
<rect x="116.531" y="38.5312" width="0.934259" height="0.934259" rx="0.467129" fill="#65E52A"/>
<rect x="129.531" y="38.5312" width="0.934259" height="0.934259" rx="0.467129" fill="#65E52A"/>
<rect x="142.531" y="38.5312" width="0.934259" height="0.934259" rx="0.467129" fill="#65E52A"/>
<rect x="155.531" y="38.5312" width="0.934259" height="0.934259" rx="0.467129" fill="#65E52A"/>
<rect x="168.531" y="38.5312" width="0.934259" height="0.934259" rx="0.467129" fill="#65E52A"/>
<rect x="181.531" y="38.5312" width="0.934259" height="0.934259" rx="0.467129" fill="#65E52A"/>
<rect x="194.531" y="38.5312" width="0.934259" height="0.934259" rx="0.467129" fill="#65E52A"/>
<rect x="207.531" y="38.5312" width="0.934259" height="0.934259" rx="0.467129" fill="#65E52A"/>
<rect x="220.531" y="38.5312" width="0.934259" height="0.934259" rx="0.467129" fill="#65E52A"/>
<rect x="233.531" y="38.5312" width="0.934259" height="0.934259" rx="0.467129" fill="#65E52A"/>
<rect x="246.531" y="38.5312" width="0.934259" height="0.934259" rx="0.467129" fill="#65E52A"/>
<rect x="259.531" y="38.5312" width="0.934259" height="0.934259" rx="0.467129" fill="#65E52A"/>
<rect x="272.531" y="38.5312" width="0.934259" height="0.934259" rx="0.467129" fill="#65E52A"/>
<rect x="285.531" y="38.5312" width="0.934259" height="0.934259" rx="0.467129" fill="#65E52A"/>
<rect x="298.531" y="38.5312" width="0.934259" height="0.934259" rx="0.467129" fill="#65E52A"/>
<rect x="-0.46875" y="51.5312" width="0.934259" height="0.934259" rx="0.467129" fill="#65E52A"/>
<rect x="12.5312" y="51.5312" width="0.934259" height="0.934259" rx="0.467129" fill="#65E52A"/>
<rect x="25.5312" y="51.5312" width="0.934259" height="0.934259" rx="0.467129" fill="#65E52A"/>
<rect x="38.5312" y="51.5312" width="0.934259" height="0.934259" rx="0.467129" fill="#65E52A"/>
<rect x="51.5312" y="51.5312" width="0.934259" height="0.934259" rx="0.467129" fill="#65E52A"/>
<rect x="64.5312" y="51.5312" width="0.934259" height="0.934259" rx="0.467129" fill="#65E52A"/>
<rect x="77.5312" y="51.5312" width="0.934259" height="0.934259" rx="0.467129" fill="#65E52A"/>
<rect x="90.5312" y="51.5312" width="0.934259" height="0.934259" rx="0.467129" fill="#65E52A"/>
<rect x="103.531" y="51.5312" width="0.934259" height="0.934259" rx="0.467129" fill="#65E52A"/>
<rect x="116.531" y="51.5312" width="0.934259" height="0.934259" rx="0.467129" fill="#65E52A"/>
<rect x="129.531" y="51.5312" width="0.934259" height="0.934259" rx="0.467129" fill="#65E52A"/>
<rect x="142.531" y="51.5312" width="0.934259" height="0.934259" rx="0.467129" fill="#65E52A"/>
<rect x="155.531" y="51.5312" width="0.934259" height="0.934259" rx="0.467129" fill="#65E52A"/>
<rect x="168.531" y="51.5312" width="0.934259" height="0.934259" rx="0.467129" fill="#65E52A"/>
<rect x="181.531" y="51.5312" width="0.934259" height="0.934259" rx="0.467129" fill="#65E52A"/>
<rect x="194.531" y="51.5312" width="0.934259" height="0.934259" rx="0.467129" fill="#65E52A"/>
<rect x="207.531" y="51.5312" width="0.934259" height="0.934259" rx="0.467129" fill="#65E52A"/>
<rect x="220.531" y="51.5312" width="0.934259" height="0.934259" rx="0.467129" fill="#65E52A"/>
<rect x="233.531" y="51.5312" width="0.934259" height="0.934259" rx="0.467129" fill="#65E52A"/>
<rect x="246.531" y="51.5312" width="0.934259" height="0.934259" rx="0.467129" fill="#65E52A"/>
<rect x="259.531" y="51.5312" width="0.934259" height="0.934259" rx="0.467129" fill="#65E52A"/>
<rect x="272.531" y="51.5312" width="0.934259" height="0.934259" rx="0.467129" fill="#65E52A"/>
<rect x="285.531" y="51.5312" width="0.934259" height="0.934259" rx="0.467129" fill="#65E52A"/>
<rect x="298.531" y="51.5312" width="0.934259" height="0.934259" rx="0.467129" fill="#65E52A"/>
<rect x="-0.46875" y="64.5312" width="0.934259" height="0.934259" rx="0.467129" fill="#65E52A"/>
<rect x="12.5312" y="64.5312" width="0.934259" height="0.934259" rx="0.467129" fill="#65E52A"/>
<rect x="25.5312" y="64.5312" width="0.934259" height="0.934259" rx="0.467129" fill="#65E52A"/>
<rect x="38.5312" y="64.5312" width="0.934259" height="0.934259" rx="0.467129" fill="#65E52A"/>
<rect x="51.5312" y="64.5312" width="0.934259" height="0.934259" rx="0.467129" fill="#65E52A"/>
<rect x="64.5312" y="64.5312" width="0.934259" height="0.934259" rx="0.467129" fill="#65E52A"/>
<rect x="77.5312" y="64.5312" width="0.934259" height="0.934259" rx="0.467129" fill="#65E52A"/>
<rect x="90.5312" y="64.5312" width="0.934259" height="0.934259" rx="0.467129" fill="#65E52A"/>
<rect x="103.531" y="64.5312" width="0.934259" height="0.934259" rx="0.467129" fill="#65E52A"/>
<rect x="116.531" y="64.5312" width="0.934259" height="0.934259" rx="0.467129" fill="#65E52A"/>
<rect x="129.531" y="64.5312" width="0.934259" height="0.934259" rx="0.467129" fill="#65E52A"/>
<rect x="142.531" y="64.5312" width="0.934259" height="0.934259" rx="0.467129" fill="#65E52A"/>
<rect x="155.531" y="64.5312" width="0.934259" height="0.934259" rx="0.467129" fill="#65E52A"/>
<rect x="168.531" y="64.5312" width="0.934259" height="0.934259" rx="0.467129" fill="#65E52A"/>
<rect x="181.531" y="64.5312" width="0.934259" height="0.934259" rx="0.467129" fill="#65E52A"/>
<rect x="194.531" y="64.5312" width="0.934259" height="0.934259" rx="0.467129" fill="#65E52A"/>
<rect x="207.531" y="64.5312" width="0.934259" height="0.934259" rx="0.467129" fill="#65E52A"/>
<rect x="220.531" y="64.5312" width="0.934259" height="0.934259" rx="0.467129" fill="#65E52A"/>
<rect x="233.531" y="64.5312" width="0.934259" height="0.934259" rx="0.467129" fill="#65E52A"/>
<rect x="246.531" y="64.5312" width="0.934259" height="0.934259" rx="0.467129" fill="#65E52A"/>
<rect x="259.531" y="64.5312" width="0.934259" height="0.934259" rx="0.467129" fill="#65E52A"/>
<rect x="272.531" y="64.5312" width="0.934259" height="0.934259" rx="0.467129" fill="#65E52A"/>
<rect x="285.531" y="64.5312" width="0.934259" height="0.934259" rx="0.467129" fill="#65E52A"/>
<rect x="298.531" y="64.5312" width="0.934259" height="0.934259" rx="0.467129" fill="#65E52A"/>
<rect x="-0.46875" y="77.5312" width="0.934259" height="0.934259" rx="0.467129" fill="#65E52A"/>
<rect x="12.5312" y="77.5312" width="0.934259" height="0.934259" rx="0.467129" fill="#65E52A"/>
<rect x="25.5312" y="77.5312" width="0.934259" height="0.934259" rx="0.467129" fill="#65E52A"/>
<rect x="38.5312" y="77.5312" width="0.934259" height="0.934259" rx="0.467129" fill="#65E52A"/>
<rect x="51.5312" y="77.5312" width="0.934259" height="0.934259" rx="0.467129" fill="#65E52A"/>
<rect x="64.5312" y="77.5312" width="0.934259" height="0.934259" rx="0.467129" fill="#65E52A"/>
<rect x="77.5312" y="77.5312" width="0.934259" height="0.934259" rx="0.467129" fill="#65E52A"/>
<rect x="90.5312" y="77.5312" width="0.934259" height="0.934259" rx="0.467129" fill="#65E52A"/>
<rect x="103.531" y="77.5312" width="0.934259" height="0.934259" rx="0.467129" fill="#65E52A"/>
<rect x="116.531" y="77.5312" width="0.934259" height="0.934259" rx="0.467129" fill="#65E52A"/>
<rect x="129.531" y="77.5312" width="0.934259" height="0.934259" rx="0.467129" fill="#65E52A"/>
<rect x="142.531" y="77.5312" width="0.934259" height="0.934259" rx="0.467129" fill="#65E52A"/>
<rect x="155.531" y="77.5312" width="0.934259" height="0.934259" rx="0.467129" fill="#65E52A"/>
<rect x="168.531" y="77.5312" width="0.934259" height="0.934259" rx="0.467129" fill="#65E52A"/>
<rect x="181.531" y="77.5312" width="0.934259" height="0.934259" rx="0.467129" fill="#65E52A"/>
<rect x="194.531" y="77.5312" width="0.934259" height="0.934259" rx="0.467129" fill="#65E52A"/>
<rect x="207.531" y="77.5312" width="0.934259" height="0.934259" rx="0.467129" fill="#65E52A"/>
<rect x="220.531" y="77.5312" width="0.934259" height="0.934259" rx="0.467129" fill="#65E52A"/>
<rect x="233.531" y="77.5312" width="0.934259" height="0.934259" rx="0.467129" fill="#65E52A"/>
<rect x="246.531" y="77.5312" width="0.934259" height="0.934259" rx="0.467129" fill="#65E52A"/>
<rect x="259.531" y="77.5312" width="0.934259" height="0.934259" rx="0.467129" fill="#65E52A"/>
<rect x="272.531" y="77.5312" width="0.934259" height="0.934259" rx="0.467129" fill="#65E52A"/>
<rect x="285.531" y="77.5312" width="0.934259" height="0.934259" rx="0.467129" fill="#65E52A"/>
<rect x="298.531" y="77.5312" width="0.934259" height="0.934259" rx="0.467129" fill="#65E52A"/>
<rect x="-0.46875" y="90.5312" width="0.934259" height="0.934259" rx="0.467129" fill="#65E52A"/>
<rect x="12.5312" y="90.5312" width="0.934259" height="0.934259" rx="0.467129" fill="#65E52A"/>
<rect x="25.5312" y="90.5312" width="0.934259" height="0.934259" rx="0.467129" fill="#65E52A"/>
<rect x="38.5312" y="90.5312" width="0.934259" height="0.934259" rx="0.467129" fill="#65E52A"/>
<rect x="51.5312" y="90.5312" width="0.934259" height="0.934259" rx="0.467129" fill="#65E52A"/>
<rect x="64.5312" y="90.5312" width="0.934259" height="0.934259" rx="0.467129" fill="#65E52A"/>
<rect x="77.5312" y="90.5312" width="0.934259" height="0.934259" rx="0.467129" fill="#65E52A"/>
<rect x="90.5312" y="90.5312" width="0.934259" height="0.934259" rx="0.467129" fill="#65E52A"/>
<rect x="103.531" y="90.5312" width="0.934259" height="0.934259" rx="0.467129" fill="#65E52A"/>
<rect x="116.531" y="90.5312" width="0.934259" height="0.934259" rx="0.467129" fill="#65E52A"/>
<rect x="129.531" y="90.5312" width="0.934259" height="0.934259" rx="0.467129" fill="#65E52A"/>
<rect x="142.531" y="90.5312" width="0.934259" height="0.934259" rx="0.467129" fill="#65E52A"/>
<rect x="155.531" y="90.5312" width="0.934259" height="0.934259" rx="0.467129" fill="#65E52A"/>
<rect x="168.531" y="90.5312" width="0.934259" height="0.934259" rx="0.467129" fill="#65E52A"/>
<rect x="181.531" y="90.5312" width="0.934259" height="0.934259" rx="0.467129" fill="#65E52A"/>
<rect x="194.531" y="90.5312" width="0.934259" height="0.934259" rx="0.467129" fill="#65E52A"/>
<rect x="207.531" y="90.5312" width="0.934259" height="0.934259" rx="0.467129" fill="#65E52A"/>
<rect x="220.531" y="90.5312" width="0.934259" height="0.934259" rx="0.467129" fill="#65E52A"/>
<rect x="233.531" y="90.5312" width="0.934259" height="0.934259" rx="0.467129" fill="#65E52A"/>
<rect x="246.531" y="90.5312" width="0.934259" height="0.934259" rx="0.467129" fill="#65E52A"/>
<rect x="259.531" y="90.5312" width="0.934259" height="0.934259" rx="0.467129" fill="#65E52A"/>
<rect x="272.531" y="90.5312" width="0.934259" height="0.934259" rx="0.467129" fill="#65E52A"/>
<rect x="285.531" y="90.5312" width="0.934259" height="0.934259" rx="0.467129" fill="#65E52A"/>
<rect x="298.531" y="90.5312" width="0.934259" height="0.934259" rx="0.467129" fill="#65E52A"/>
<rect x="-0.46875" y="103.531" width="0.934259" height="0.934259" rx="0.467129" fill="#65E52A"/>
<rect x="12.5312" y="103.531" width="0.934259" height="0.934259" rx="0.467129" fill="#65E52A"/>
<rect x="25.5312" y="103.531" width="0.934259" height="0.934259" rx="0.467129" fill="#65E52A"/>
<rect x="38.5312" y="103.531" width="0.934259" height="0.934259" rx="0.467129" fill="#65E52A"/>
<rect x="51.5312" y="103.531" width="0.934259" height="0.934259" rx="0.467129" fill="#65E52A"/>
<rect x="64.5312" y="103.531" width="0.934259" height="0.934259" rx="0.467129" fill="#65E52A"/>
<rect x="77.5312" y="103.531" width="0.934259" height="0.934259" rx="0.467129" fill="#65E52A"/>
<rect x="90.5312" y="103.531" width="0.934259" height="0.934259" rx="0.467129" fill="#65E52A"/>
<rect x="103.531" y="103.531" width="0.934259" height="0.934259" rx="0.467129" fill="#65E52A"/>
<rect x="116.531" y="103.531" width="0.934259" height="0.934259" rx="0.467129" fill="#65E52A"/>
<rect x="129.531" y="103.531" width="0.934259" height="0.934259" rx="0.467129" fill="#65E52A"/>
<rect x="142.531" y="103.531" width="0.934259" height="0.934259" rx="0.467129" fill="#65E52A"/>
<rect x="155.531" y="103.531" width="0.934259" height="0.934259" rx="0.467129" fill="#65E52A"/>
<rect x="168.531" y="103.531" width="0.934259" height="0.934259" rx="0.467129" fill="#65E52A"/>
<rect x="181.531" y="103.531" width="0.934259" height="0.934259" rx="0.467129" fill="#65E52A"/>
<rect x="194.531" y="103.531" width="0.934259" height="0.934259" rx="0.467129" fill="#65E52A"/>
<rect x="207.531" y="103.531" width="0.934259" height="0.934259" rx="0.467129" fill="#65E52A"/>
<rect x="220.531" y="103.531" width="0.934259" height="0.934259" rx="0.467129" fill="#65E52A"/>
<rect x="233.531" y="103.531" width="0.934259" height="0.934259" rx="0.467129" fill="#65E52A"/>
<rect x="246.531" y="103.531" width="0.934259" height="0.934259" rx="0.467129" fill="#65E52A"/>
<rect x="259.531" y="103.531" width="0.934259" height="0.934259" rx="0.467129" fill="#65E52A"/>
<rect x="272.531" y="103.531" width="0.934259" height="0.934259" rx="0.467129" fill="#65E52A"/>
<rect x="285.531" y="103.531" width="0.934259" height="0.934259" rx="0.467129" fill="#65E52A"/>
<rect x="298.531" y="103.531" width="0.934259" height="0.934259" rx="0.467129" fill="#65E52A"/>
</g>
<defs>
<clipPath id="clip0_4026_1283">
<rect width="303" height="110" fill="white"/>
</clipPath>
</defs>
</svg>
