<svg width="303" height="279" viewBox="0 0 303 279" fill="none" xmlns="http://www.w3.org/2000/svg">
<g clip-path="url(#clip0_4033_80)">
<rect x="-0.46875" y="168.531" width="0.934259" height="0.934259" rx="0.467129" fill="#65E52A"/>
<rect x="12.5312" y="168.531" width="0.934259" height="0.934259" rx="0.467129" fill="#65E52A"/>
<rect x="25.5312" y="168.531" width="0.934259" height="0.934259" rx="0.467129" fill="#65E52A"/>
<rect x="38.5312" y="168.531" width="0.934259" height="0.934259" rx="0.467129" fill="#65E52A"/>
<rect x="51.5312" y="168.531" width="0.934259" height="0.934259" rx="0.467129" fill="#65E52A"/>
<rect x="64.5312" y="168.531" width="0.934259" height="0.934259" rx="0.467129" fill="#65E52A"/>
<rect x="77.5312" y="168.531" width="0.934259" height="0.934259" rx="0.467129" fill="#65E52A"/>
<rect x="90.5312" y="168.531" width="0.934259" height="0.934259" rx="0.467129" fill="#65E52A"/>
<rect x="103.531" y="168.531" width="0.934259" height="0.934259" rx="0.467129" fill="#65E52A"/>
<rect x="116.531" y="168.531" width="0.934259" height="0.934259" rx="0.467129" fill="#65E52A"/>
<rect x="129.531" y="168.531" width="0.934259" height="0.934259" rx="0.467129" fill="#65E52A"/>
<rect x="142.531" y="168.531" width="0.934259" height="0.934259" rx="0.467129" fill="#65E52A"/>
<rect x="155.531" y="168.531" width="0.934259" height="0.934259" rx="0.467129" fill="#65E52A"/>
<rect x="168.531" y="168.531" width="0.934259" height="0.934259" rx="0.467129" fill="#65E52A"/>
<rect x="181.531" y="168.531" width="0.934259" height="0.934259" rx="0.467129" fill="#65E52A"/>
<rect x="194.531" y="168.531" width="0.934259" height="0.934259" rx="0.467129" fill="#65E52A"/>
<rect x="207.531" y="168.531" width="0.934259" height="0.934259" rx="0.467129" fill="#65E52A"/>
<rect x="220.531" y="168.531" width="0.934259" height="0.934259" rx="0.467129" fill="#65E52A"/>
<rect x="233.531" y="168.531" width="0.934259" height="0.934259" rx="0.467129" fill="#65E52A"/>
<rect x="246.531" y="168.531" width="0.934259" height="0.934259" rx="0.467129" fill="#65E52A"/>
<rect x="259.531" y="168.531" width="0.934259" height="0.934259" rx="0.467129" fill="#65E52A"/>
<rect x="272.531" y="168.531" width="0.934259" height="0.934259" rx="0.467129" fill="#65E52A"/>
<rect x="285.531" y="168.531" width="0.934259" height="0.934259" rx="0.467129" fill="#65E52A"/>
<rect x="298.531" y="168.531" width="0.934259" height="0.934259" rx="0.467129" fill="#65E52A"/>
<rect x="-0.46875" y="181.531" width="0.934259" height="0.934259" rx="0.467129" fill="#65E52A"/>
<rect x="12.5312" y="181.531" width="0.934259" height="0.934259" rx="0.467129" fill="#65E52A"/>
<rect x="25.5312" y="181.531" width="0.934259" height="0.934259" rx="0.467129" fill="#65E52A"/>
<rect x="38.5312" y="181.531" width="0.934259" height="0.934259" rx="0.467129" fill="#65E52A"/>
<rect x="51.5312" y="181.531" width="0.934259" height="0.934259" rx="0.467129" fill="#65E52A"/>
<rect x="64.5312" y="181.531" width="0.934259" height="0.934259" rx="0.467129" fill="#65E52A"/>
<rect x="77.5312" y="181.531" width="0.934259" height="0.934259" rx="0.467129" fill="#65E52A"/>
<rect x="90.5312" y="181.531" width="0.934259" height="0.934259" rx="0.467129" fill="#65E52A"/>
<rect x="103.531" y="181.531" width="0.934259" height="0.934259" rx="0.467129" fill="#65E52A"/>
<rect x="116.531" y="181.531" width="0.934259" height="0.934259" rx="0.467129" fill="#65E52A"/>
<rect x="129.531" y="181.531" width="0.934259" height="0.934259" rx="0.467129" fill="#65E52A"/>
<rect x="142.531" y="181.531" width="0.934259" height="0.934259" rx="0.467129" fill="#65E52A"/>
<rect x="155.531" y="181.531" width="0.934259" height="0.934259" rx="0.467129" fill="#65E52A"/>
<rect x="168.531" y="181.531" width="0.934259" height="0.934259" rx="0.467129" fill="#65E52A"/>
<rect x="181.531" y="181.531" width="0.934259" height="0.934259" rx="0.467129" fill="#65E52A"/>
<rect x="194.531" y="181.531" width="0.934259" height="0.934259" rx="0.467129" fill="#65E52A"/>
<rect x="207.531" y="181.531" width="0.934259" height="0.934259" rx="0.467129" fill="#65E52A"/>
<rect x="220.531" y="181.531" width="0.934259" height="0.934259" rx="0.467129" fill="#65E52A"/>
<rect x="233.531" y="181.531" width="0.934259" height="0.934259" rx="0.467129" fill="#65E52A"/>
<rect x="246.531" y="181.531" width="0.934259" height="0.934259" rx="0.467129" fill="#65E52A"/>
<rect x="259.531" y="181.531" width="0.934259" height="0.934259" rx="0.467129" fill="#65E52A"/>
<rect x="272.531" y="181.531" width="0.934259" height="0.934259" rx="0.467129" fill="#65E52A"/>
<rect x="285.531" y="181.531" width="0.934259" height="0.934259" rx="0.467129" fill="#65E52A"/>
<rect x="298.531" y="181.531" width="0.934259" height="0.934259" rx="0.467129" fill="#65E52A"/>
<rect x="-0.46875" y="194.531" width="0.934259" height="0.934259" rx="0.467129" fill="#65E52A"/>
<rect x="12.5312" y="194.531" width="0.934259" height="0.934259" rx="0.467129" fill="#65E52A"/>
<rect x="25.5312" y="194.531" width="0.934259" height="0.934259" rx="0.467129" fill="#65E52A"/>
<rect x="38.5312" y="194.531" width="0.934259" height="0.934259" rx="0.467129" fill="#65E52A"/>
<rect x="51.5312" y="194.531" width="0.934259" height="0.934259" rx="0.467129" fill="#65E52A"/>
<rect x="64.5312" y="194.531" width="0.934259" height="0.934259" rx="0.467129" fill="#65E52A"/>
<rect x="77.5312" y="194.531" width="0.934259" height="0.934259" rx="0.467129" fill="#65E52A"/>
<rect x="90.5312" y="194.531" width="0.934259" height="0.934259" rx="0.467129" fill="#65E52A"/>
<rect x="103.531" y="194.531" width="0.934259" height="0.934259" rx="0.467129" fill="#65E52A"/>
<rect x="116.531" y="194.531" width="0.934259" height="0.934259" rx="0.467129" fill="#65E52A"/>
<rect x="129.531" y="194.531" width="0.934259" height="0.934259" rx="0.467129" fill="#65E52A"/>
<rect x="142.531" y="194.531" width="0.934259" height="0.934259" rx="0.467129" fill="#65E52A"/>
<rect x="155.531" y="194.531" width="0.934259" height="0.934259" rx="0.467129" fill="#65E52A"/>
<rect x="168.531" y="194.531" width="0.934259" height="0.934259" rx="0.467129" fill="#65E52A"/>
<rect x="181.531" y="194.531" width="0.934259" height="0.934259" rx="0.467129" fill="#65E52A"/>
<rect x="194.531" y="194.531" width="0.934259" height="0.934259" rx="0.467129" fill="#65E52A"/>
<rect x="207.531" y="194.531" width="0.934259" height="0.934259" rx="0.467129" fill="#65E52A"/>
<rect x="220.531" y="194.531" width="0.934259" height="0.934259" rx="0.467129" fill="#65E52A"/>
<rect x="233.531" y="194.531" width="0.934259" height="0.934259" rx="0.467129" fill="#65E52A"/>
<rect x="246.531" y="194.531" width="0.934259" height="0.934259" rx="0.467129" fill="#65E52A"/>
<rect x="259.531" y="194.531" width="0.934259" height="0.934259" rx="0.467129" fill="#65E52A"/>
<rect x="272.531" y="194.531" width="0.934259" height="0.934259" rx="0.467129" fill="#65E52A"/>
<rect x="285.531" y="194.531" width="0.934259" height="0.934259" rx="0.467129" fill="#65E52A"/>
<rect x="298.531" y="194.531" width="0.934259" height="0.934259" rx="0.467129" fill="#65E52A"/>
<rect x="-0.46875" y="207.531" width="0.934259" height="0.934259" rx="0.467129" fill="#65E52A"/>
<rect x="12.5312" y="207.531" width="0.934259" height="0.934259" rx="0.467129" fill="#65E52A"/>
<rect x="25.5312" y="207.531" width="0.934259" height="0.934259" rx="0.467129" fill="#65E52A"/>
<rect x="38.5312" y="207.531" width="0.934259" height="0.934259" rx="0.467129" fill="#65E52A"/>
<rect x="51.5312" y="207.531" width="0.934259" height="0.934259" rx="0.467129" fill="#65E52A"/>
<rect x="64.5312" y="207.531" width="0.934259" height="0.934259" rx="0.467129" fill="#65E52A"/>
<rect x="77.5312" y="207.531" width="0.934259" height="0.934259" rx="0.467129" fill="#65E52A"/>
<rect x="90.5312" y="207.531" width="0.934259" height="0.934259" rx="0.467129" fill="#65E52A"/>
<rect x="103.531" y="207.531" width="0.934259" height="0.934259" rx="0.467129" fill="#65E52A"/>
<rect x="116.531" y="207.531" width="0.934259" height="0.934259" rx="0.467129" fill="#65E52A"/>
<rect x="129.531" y="207.531" width="0.934259" height="0.934259" rx="0.467129" fill="#65E52A"/>
<rect x="142.531" y="207.531" width="0.934259" height="0.934259" rx="0.467129" fill="#65E52A"/>
<rect x="155.531" y="207.531" width="0.934259" height="0.934259" rx="0.467129" fill="#65E52A"/>
<rect x="168.531" y="207.531" width="0.934259" height="0.934259" rx="0.467129" fill="#65E52A"/>
<rect x="181.531" y="207.531" width="0.934259" height="0.934259" rx="0.467129" fill="#65E52A"/>
<rect x="194.531" y="207.531" width="0.934259" height="0.934259" rx="0.467129" fill="#65E52A"/>
<rect x="207.531" y="207.531" width="0.934259" height="0.934259" rx="0.467129" fill="#65E52A"/>
<rect x="220.531" y="207.531" width="0.934259" height="0.934259" rx="0.467129" fill="#65E52A"/>
<rect x="233.531" y="207.531" width="0.934259" height="0.934259" rx="0.467129" fill="#65E52A"/>
<rect x="246.531" y="207.531" width="0.934259" height="0.934259" rx="0.467129" fill="#65E52A"/>
<rect x="259.531" y="207.531" width="0.934259" height="0.934259" rx="0.467129" fill="#65E52A"/>
<rect x="272.531" y="207.531" width="0.934259" height="0.934259" rx="0.467129" fill="#65E52A"/>
<rect x="285.531" y="207.531" width="0.934259" height="0.934259" rx="0.467129" fill="#65E52A"/>
<rect x="298.531" y="207.531" width="0.934259" height="0.934259" rx="0.467129" fill="#65E52A"/>
<rect x="-0.46875" y="220.531" width="0.934259" height="0.934259" rx="0.467129" fill="#65E52A"/>
<rect x="12.5312" y="220.531" width="0.934259" height="0.934259" rx="0.467129" fill="#65E52A"/>
<rect x="25.5312" y="220.531" width="0.934259" height="0.934259" rx="0.467129" fill="#65E52A"/>
<rect x="38.5312" y="220.531" width="0.934259" height="0.934259" rx="0.467129" fill="#65E52A"/>
<rect x="51.5312" y="220.531" width="0.934259" height="0.934259" rx="0.467129" fill="#65E52A"/>
<rect x="64.5312" y="220.531" width="0.934259" height="0.934259" rx="0.467129" fill="#65E52A"/>
<rect x="77.5312" y="220.531" width="0.934259" height="0.934259" rx="0.467129" fill="#65E52A"/>
<rect x="90.5312" y="220.531" width="0.934259" height="0.934259" rx="0.467129" fill="#65E52A"/>
<rect x="103.531" y="220.531" width="0.934259" height="0.934259" rx="0.467129" fill="#65E52A"/>
<rect x="116.531" y="220.531" width="0.934259" height="0.934259" rx="0.467129" fill="#65E52A"/>
<rect x="129.531" y="220.531" width="0.934259" height="0.934259" rx="0.467129" fill="#65E52A"/>
<rect x="142.531" y="220.531" width="0.934259" height="0.934259" rx="0.467129" fill="#65E52A"/>
<rect x="155.531" y="220.531" width="0.934259" height="0.934259" rx="0.467129" fill="#65E52A"/>
<rect x="168.531" y="220.531" width="0.934259" height="0.934259" rx="0.467129" fill="#65E52A"/>
<rect x="181.531" y="220.531" width="0.934259" height="0.934259" rx="0.467129" fill="#65E52A"/>
<rect x="194.531" y="220.531" width="0.934259" height="0.934259" rx="0.467129" fill="#65E52A"/>
<rect x="207.531" y="220.531" width="0.934259" height="0.934259" rx="0.467129" fill="#65E52A"/>
<rect x="220.531" y="220.531" width="0.934259" height="0.934259" rx="0.467129" fill="#65E52A"/>
<rect x="233.531" y="220.531" width="0.934259" height="0.934259" rx="0.467129" fill="#65E52A"/>
<rect x="246.531" y="220.531" width="0.934259" height="0.934259" rx="0.467129" fill="#65E52A"/>
<rect x="259.531" y="220.531" width="0.934259" height="0.934259" rx="0.467129" fill="#65E52A"/>
<rect x="272.531" y="220.531" width="0.934259" height="0.934259" rx="0.467129" fill="#65E52A"/>
<rect x="285.531" y="220.531" width="0.934259" height="0.934259" rx="0.467129" fill="#65E52A"/>
<rect x="298.531" y="220.531" width="0.934259" height="0.934259" rx="0.467129" fill="#65E52A"/>
<rect x="-0.46875" y="233.531" width="0.934259" height="0.934259" rx="0.467129" fill="#65E52A"/>
<rect x="12.5312" y="233.531" width="0.934259" height="0.934259" rx="0.467129" fill="#65E52A"/>
<rect x="25.5312" y="233.531" width="0.934259" height="0.934259" rx="0.467129" fill="#65E52A"/>
<rect x="38.5312" y="233.531" width="0.934259" height="0.934259" rx="0.467129" fill="#65E52A"/>
<rect x="51.5312" y="233.531" width="0.934259" height="0.934259" rx="0.467129" fill="#65E52A"/>
<rect x="64.5312" y="233.531" width="0.934259" height="0.934259" rx="0.467129" fill="#65E52A"/>
<rect x="77.5312" y="233.531" width="0.934259" height="0.934259" rx="0.467129" fill="#65E52A"/>
<rect x="90.5312" y="233.531" width="0.934259" height="0.934259" rx="0.467129" fill="#65E52A"/>
<rect x="103.531" y="233.531" width="0.934259" height="0.934259" rx="0.467129" fill="#65E52A"/>
<rect x="116.531" y="233.531" width="0.934259" height="0.934259" rx="0.467129" fill="#65E52A"/>
<rect x="129.531" y="233.531" width="0.934259" height="0.934259" rx="0.467129" fill="#65E52A"/>
<rect x="142.531" y="233.531" width="0.934259" height="0.934259" rx="0.467129" fill="#65E52A"/>
<rect x="155.531" y="233.531" width="0.934259" height="0.934259" rx="0.467129" fill="#65E52A"/>
<rect x="168.531" y="233.531" width="0.934259" height="0.934259" rx="0.467129" fill="#65E52A"/>
<rect x="181.531" y="233.531" width="0.934259" height="0.934259" rx="0.467129" fill="#65E52A"/>
<rect x="194.531" y="233.531" width="0.934259" height="0.934259" rx="0.467129" fill="#65E52A"/>
<rect x="207.531" y="233.531" width="0.934259" height="0.934259" rx="0.467129" fill="#65E52A"/>
<rect x="220.531" y="233.531" width="0.934259" height="0.934259" rx="0.467129" fill="#65E52A"/>
<rect x="233.531" y="233.531" width="0.934259" height="0.934259" rx="0.467129" fill="#65E52A"/>
<rect x="246.531" y="233.531" width="0.934259" height="0.934259" rx="0.467129" fill="#65E52A"/>
<rect x="259.531" y="233.531" width="0.934259" height="0.934259" rx="0.467129" fill="#65E52A"/>
<rect x="272.531" y="233.531" width="0.934259" height="0.934259" rx="0.467129" fill="#65E52A"/>
<rect x="285.531" y="233.531" width="0.934259" height="0.934259" rx="0.467129" fill="#65E52A"/>
<rect x="298.531" y="233.531" width="0.934259" height="0.934259" rx="0.467129" fill="#65E52A"/>
<rect x="-0.46875" y="246.531" width="0.934259" height="0.934259" rx="0.467129" fill="#65E52A"/>
<rect x="12.5312" y="246.531" width="0.934259" height="0.934259" rx="0.467129" fill="#65E52A"/>
<rect x="25.5312" y="246.531" width="0.934259" height="0.934259" rx="0.467129" fill="#65E52A"/>
<rect x="38.5312" y="246.531" width="0.934259" height="0.934259" rx="0.467129" fill="#65E52A"/>
<rect x="51.5312" y="246.531" width="0.934259" height="0.934259" rx="0.467129" fill="#65E52A"/>
<rect x="64.5312" y="246.531" width="0.934259" height="0.934259" rx="0.467129" fill="#65E52A"/>
<rect x="77.5312" y="246.531" width="0.934259" height="0.934259" rx="0.467129" fill="#65E52A"/>
<rect x="90.5312" y="246.531" width="0.934259" height="0.934259" rx="0.467129" fill="#65E52A"/>
<rect x="103.531" y="246.531" width="0.934259" height="0.934259" rx="0.467129" fill="#65E52A"/>
<rect x="116.531" y="246.531" width="0.934259" height="0.934259" rx="0.467129" fill="#65E52A"/>
<rect x="129.531" y="246.531" width="0.934259" height="0.934259" rx="0.467129" fill="#65E52A"/>
<rect x="142.531" y="246.531" width="0.934259" height="0.934259" rx="0.467129" fill="#65E52A"/>
<rect x="155.531" y="246.531" width="0.934259" height="0.934259" rx="0.467129" fill="#65E52A"/>
<rect x="168.531" y="246.531" width="0.934259" height="0.934259" rx="0.467129" fill="#65E52A"/>
<rect x="181.531" y="246.531" width="0.934259" height="0.934259" rx="0.467129" fill="#65E52A"/>
<rect x="194.531" y="246.531" width="0.934259" height="0.934259" rx="0.467129" fill="#65E52A"/>
<rect x="207.531" y="246.531" width="0.934259" height="0.934259" rx="0.467129" fill="#65E52A"/>
<rect x="220.531" y="246.531" width="0.934259" height="0.934259" rx="0.467129" fill="#65E52A"/>
<rect x="233.531" y="246.531" width="0.934259" height="0.934259" rx="0.467129" fill="#65E52A"/>
<rect x="246.531" y="246.531" width="0.934259" height="0.934259" rx="0.467129" fill="#65E52A"/>
<rect x="259.531" y="246.531" width="0.934259" height="0.934259" rx="0.467129" fill="#65E52A"/>
<rect x="272.531" y="246.531" width="0.934259" height="0.934259" rx="0.467129" fill="#65E52A"/>
<rect x="285.531" y="246.531" width="0.934259" height="0.934259" rx="0.467129" fill="#65E52A"/>
<rect x="298.531" y="246.531" width="0.934259" height="0.934259" rx="0.467129" fill="#65E52A"/>
<rect x="-0.46875" y="259.531" width="0.934259" height="0.934259" rx="0.467129" fill="#65E52A"/>
<rect x="12.5312" y="259.531" width="0.934259" height="0.934259" rx="0.467129" fill="#65E52A"/>
<rect x="25.5312" y="259.531" width="0.934259" height="0.934259" rx="0.467129" fill="#65E52A"/>
<rect x="38.5312" y="259.531" width="0.934259" height="0.934259" rx="0.467129" fill="#65E52A"/>
<rect x="51.5312" y="259.531" width="0.934259" height="0.934259" rx="0.467129" fill="#65E52A"/>
<rect x="64.5312" y="259.531" width="0.934259" height="0.934259" rx="0.467129" fill="#65E52A"/>
<rect x="77.5312" y="259.531" width="0.934259" height="0.934259" rx="0.467129" fill="#65E52A"/>
<rect x="90.5312" y="259.531" width="0.934259" height="0.934259" rx="0.467129" fill="#65E52A"/>
<rect x="103.531" y="259.531" width="0.934259" height="0.934259" rx="0.467129" fill="#65E52A"/>
<rect x="116.531" y="259.531" width="0.934259" height="0.934259" rx="0.467129" fill="#65E52A"/>
<rect x="129.531" y="259.531" width="0.934259" height="0.934259" rx="0.467129" fill="#65E52A"/>
<rect x="142.531" y="259.531" width="0.934259" height="0.934259" rx="0.467129" fill="#65E52A"/>
<rect x="155.531" y="259.531" width="0.934259" height="0.934259" rx="0.467129" fill="#65E52A"/>
<rect x="168.531" y="259.531" width="0.934259" height="0.934259" rx="0.467129" fill="#65E52A"/>
<rect x="181.531" y="259.531" width="0.934259" height="0.934259" rx="0.467129" fill="#65E52A"/>
<rect x="194.531" y="259.531" width="0.934259" height="0.934259" rx="0.467129" fill="#65E52A"/>
<rect x="207.531" y="259.531" width="0.934259" height="0.934259" rx="0.467129" fill="#65E52A"/>
<rect x="220.531" y="259.531" width="0.934259" height="0.934259" rx="0.467129" fill="#65E52A"/>
<rect x="233.531" y="259.531" width="0.934259" height="0.934259" rx="0.467129" fill="#65E52A"/>
<rect x="246.531" y="259.531" width="0.934259" height="0.934259" rx="0.467129" fill="#65E52A"/>
<rect x="259.531" y="259.531" width="0.934259" height="0.934259" rx="0.467129" fill="#65E52A"/>
<rect x="272.531" y="259.531" width="0.934259" height="0.934259" rx="0.467129" fill="#65E52A"/>
<rect x="285.531" y="259.531" width="0.934259" height="0.934259" rx="0.467129" fill="#65E52A"/>
<rect x="298.531" y="259.531" width="0.934259" height="0.934259" rx="0.467129" fill="#65E52A"/>
<rect x="-0.46875" y="272.531" width="0.934259" height="0.934259" rx="0.467129" fill="#65E52A"/>
<rect x="12.5312" y="272.531" width="0.934259" height="0.934259" rx="0.467129" fill="#65E52A"/>
<rect x="25.5312" y="272.531" width="0.934259" height="0.934259" rx="0.467129" fill="#65E52A"/>
<rect x="38.5312" y="272.531" width="0.934259" height="0.934259" rx="0.467129" fill="#65E52A"/>
<rect x="51.5312" y="272.531" width="0.934259" height="0.934259" rx="0.467129" fill="#65E52A"/>
<rect x="64.5312" y="272.531" width="0.934259" height="0.934259" rx="0.467129" fill="#65E52A"/>
<rect x="77.5312" y="272.531" width="0.934259" height="0.934259" rx="0.467129" fill="#65E52A"/>
<rect x="90.5312" y="272.531" width="0.934259" height="0.934259" rx="0.467129" fill="#65E52A"/>
<rect x="103.531" y="272.531" width="0.934259" height="0.934259" rx="0.467129" fill="#65E52A"/>
<rect x="116.531" y="272.531" width="0.934259" height="0.934259" rx="0.467129" fill="#65E52A"/>
<rect x="129.531" y="272.531" width="0.934259" height="0.934259" rx="0.467129" fill="#65E52A"/>
<rect x="142.531" y="272.531" width="0.934259" height="0.934259" rx="0.467129" fill="#65E52A"/>
<rect x="155.531" y="272.531" width="0.934259" height="0.934259" rx="0.467129" fill="#65E52A"/>
<rect x="168.531" y="272.531" width="0.934259" height="0.934259" rx="0.467129" fill="#65E52A"/>
<rect x="181.531" y="272.531" width="0.934259" height="0.934259" rx="0.467129" fill="#65E52A"/>
<rect x="194.531" y="272.531" width="0.934259" height="0.934259" rx="0.467129" fill="#65E52A"/>
<rect x="207.531" y="272.531" width="0.934259" height="0.934259" rx="0.467129" fill="#65E52A"/>
<rect x="220.531" y="272.531" width="0.934259" height="0.934259" rx="0.467129" fill="#65E52A"/>
<rect x="233.531" y="272.531" width="0.934259" height="0.934259" rx="0.467129" fill="#65E52A"/>
<rect x="246.531" y="272.531" width="0.934259" height="0.934259" rx="0.467129" fill="#65E52A"/>
<rect x="259.531" y="272.531" width="0.934259" height="0.934259" rx="0.467129" fill="#65E52A"/>
<rect x="272.531" y="272.531" width="0.934259" height="0.934259" rx="0.467129" fill="#65E52A"/>
<rect x="285.531" y="272.531" width="0.934259" height="0.934259" rx="0.467129" fill="#65E52A"/>
<rect x="298.531" y="272.531" width="0.934259" height="0.934259" rx="0.467129" fill="#65E52A"/>
</g>
<g clip-path="url(#clip1_4033_80)">
<rect x="-0.46875" y="49.5312" width="0.934259" height="0.934259" rx="0.467129" fill="#65E52A"/>
<rect x="12.5312" y="49.5312" width="0.934259" height="0.934259" rx="0.467129" fill="#65E52A"/>
<rect x="25.5312" y="49.5312" width="0.934259" height="0.934259" rx="0.467129" fill="#65E52A"/>
<rect x="38.5312" y="49.5312" width="0.934259" height="0.934259" rx="0.467129" fill="#65E52A"/>
<rect x="51.5312" y="49.5312" width="0.934259" height="0.934259" rx="0.467129" fill="#65E52A"/>
<rect x="64.5312" y="49.5312" width="0.934259" height="0.934259" rx="0.467129" fill="#65E52A"/>
<rect x="77.5312" y="49.5312" width="0.934259" height="0.934259" rx="0.467129" fill="#65E52A"/>
<rect x="90.5312" y="49.5312" width="0.934259" height="0.934259" rx="0.467129" fill="#65E52A"/>
<rect x="103.531" y="49.5312" width="0.934259" height="0.934259" rx="0.467129" fill="#65E52A"/>
<rect x="116.531" y="49.5312" width="0.934259" height="0.934259" rx="0.467129" fill="#65E52A"/>
<rect x="129.531" y="49.5312" width="0.934259" height="0.934259" rx="0.467129" fill="#65E52A"/>
<rect x="142.531" y="49.5312" width="0.934259" height="0.934259" rx="0.467129" fill="#65E52A"/>
<rect x="155.531" y="49.5312" width="0.934259" height="0.934259" rx="0.467129" fill="#65E52A"/>
<rect x="168.531" y="49.5312" width="0.934259" height="0.934259" rx="0.467129" fill="#65E52A"/>
<rect x="181.531" y="49.5312" width="0.934259" height="0.934259" rx="0.467129" fill="#65E52A"/>
<rect x="194.531" y="49.5312" width="0.934259" height="0.934259" rx="0.467129" fill="#65E52A"/>
<rect x="207.531" y="49.5312" width="0.934259" height="0.934259" rx="0.467129" fill="#65E52A"/>
<rect x="220.531" y="49.5312" width="0.934259" height="0.934259" rx="0.467129" fill="#65E52A"/>
<rect x="233.531" y="49.5312" width="0.934259" height="0.934259" rx="0.467129" fill="#65E52A"/>
<rect x="246.531" y="49.5312" width="0.934259" height="0.934259" rx="0.467129" fill="#65E52A"/>
<rect x="259.531" y="49.5312" width="0.934259" height="0.934259" rx="0.467129" fill="#65E52A"/>
<rect x="272.531" y="49.5312" width="0.934259" height="0.934259" rx="0.467129" fill="#65E52A"/>
<rect x="285.531" y="49.5312" width="0.934259" height="0.934259" rx="0.467129" fill="#65E52A"/>
<rect x="298.531" y="49.5312" width="0.934259" height="0.934259" rx="0.467129" fill="#65E52A"/>
<rect x="-0.46875" y="62.5312" width="0.934259" height="0.934259" rx="0.467129" fill="#65E52A"/>
<rect x="12.5312" y="62.5312" width="0.934259" height="0.934259" rx="0.467129" fill="#65E52A"/>
<rect x="25.5312" y="62.5312" width="0.934259" height="0.934259" rx="0.467129" fill="#65E52A"/>
<rect x="38.5312" y="62.5312" width="0.934259" height="0.934259" rx="0.467129" fill="#65E52A"/>
<rect x="51.5312" y="62.5312" width="0.934259" height="0.934259" rx="0.467129" fill="#65E52A"/>
<rect x="64.5312" y="62.5312" width="0.934259" height="0.934259" rx="0.467129" fill="#65E52A"/>
<rect x="77.5312" y="62.5312" width="0.934259" height="0.934259" rx="0.467129" fill="#65E52A"/>
<rect x="90.5312" y="62.5312" width="0.934259" height="0.934259" rx="0.467129" fill="#65E52A"/>
<rect x="103.531" y="62.5312" width="0.934259" height="0.934259" rx="0.467129" fill="#65E52A"/>
<rect x="116.531" y="62.5312" width="0.934259" height="0.934259" rx="0.467129" fill="#65E52A"/>
<rect x="129.531" y="62.5312" width="0.934259" height="0.934259" rx="0.467129" fill="#65E52A"/>
<rect x="142.531" y="62.5312" width="0.934259" height="0.934259" rx="0.467129" fill="#65E52A"/>
<rect x="155.531" y="62.5312" width="0.934259" height="0.934259" rx="0.467129" fill="#65E52A"/>
<rect x="168.531" y="62.5312" width="0.934259" height="0.934259" rx="0.467129" fill="#65E52A"/>
<rect x="181.531" y="62.5312" width="0.934259" height="0.934259" rx="0.467129" fill="#65E52A"/>
<rect x="194.531" y="62.5312" width="0.934259" height="0.934259" rx="0.467129" fill="#65E52A"/>
<rect x="207.531" y="62.5312" width="0.934259" height="0.934259" rx="0.467129" fill="#65E52A"/>
<rect x="220.531" y="62.5312" width="0.934259" height="0.934259" rx="0.467129" fill="#65E52A"/>
<rect x="233.531" y="62.5312" width="0.934259" height="0.934259" rx="0.467129" fill="#65E52A"/>
<rect x="246.531" y="62.5312" width="0.934259" height="0.934259" rx="0.467129" fill="#65E52A"/>
<rect x="259.531" y="62.5312" width="0.934259" height="0.934259" rx="0.467129" fill="#65E52A"/>
<rect x="272.531" y="62.5312" width="0.934259" height="0.934259" rx="0.467129" fill="#65E52A"/>
<rect x="285.531" y="62.5312" width="0.934259" height="0.934259" rx="0.467129" fill="#65E52A"/>
<rect x="298.531" y="62.5312" width="0.934259" height="0.934259" rx="0.467129" fill="#65E52A"/>
<rect x="-0.46875" y="75.5312" width="0.934259" height="0.934259" rx="0.467129" fill="#65E52A"/>
<rect x="12.5312" y="75.5312" width="0.934259" height="0.934259" rx="0.467129" fill="#65E52A"/>
<rect x="25.5312" y="75.5312" width="0.934259" height="0.934259" rx="0.467129" fill="#65E52A"/>
<rect x="38.5312" y="75.5312" width="0.934259" height="0.934259" rx="0.467129" fill="#65E52A"/>
<rect x="51.5312" y="75.5312" width="0.934259" height="0.934259" rx="0.467129" fill="#65E52A"/>
<rect x="64.5312" y="75.5312" width="0.934259" height="0.934259" rx="0.467129" fill="#65E52A"/>
<rect x="77.5312" y="75.5312" width="0.934259" height="0.934259" rx="0.467129" fill="#65E52A"/>
<rect x="90.5312" y="75.5312" width="0.934259" height="0.934259" rx="0.467129" fill="#65E52A"/>
<rect x="103.531" y="75.5312" width="0.934259" height="0.934259" rx="0.467129" fill="#65E52A"/>
<rect x="116.531" y="75.5312" width="0.934259" height="0.934259" rx="0.467129" fill="#65E52A"/>
<rect x="129.531" y="75.5312" width="0.934259" height="0.934259" rx="0.467129" fill="#65E52A"/>
<rect x="142.531" y="75.5312" width="0.934259" height="0.934259" rx="0.467129" fill="#65E52A"/>
<rect x="155.531" y="75.5312" width="0.934259" height="0.934259" rx="0.467129" fill="#65E52A"/>
<rect x="168.531" y="75.5312" width="0.934259" height="0.934259" rx="0.467129" fill="#65E52A"/>
<rect x="181.531" y="75.5312" width="0.934259" height="0.934259" rx="0.467129" fill="#65E52A"/>
<rect x="194.531" y="75.5312" width="0.934259" height="0.934259" rx="0.467129" fill="#65E52A"/>
<rect x="207.531" y="75.5312" width="0.934259" height="0.934259" rx="0.467129" fill="#65E52A"/>
<rect x="220.531" y="75.5312" width="0.934259" height="0.934259" rx="0.467129" fill="#65E52A"/>
<rect x="233.531" y="75.5312" width="0.934259" height="0.934259" rx="0.467129" fill="#65E52A"/>
<rect x="246.531" y="75.5312" width="0.934259" height="0.934259" rx="0.467129" fill="#65E52A"/>
<rect x="259.531" y="75.5312" width="0.934259" height="0.934259" rx="0.467129" fill="#65E52A"/>
<rect x="272.531" y="75.5312" width="0.934259" height="0.934259" rx="0.467129" fill="#65E52A"/>
<rect x="285.531" y="75.5312" width="0.934259" height="0.934259" rx="0.467129" fill="#65E52A"/>
<rect x="298.531" y="75.5312" width="0.934259" height="0.934259" rx="0.467129" fill="#65E52A"/>
<rect x="-0.46875" y="88.5312" width="0.934259" height="0.934259" rx="0.467129" fill="#65E52A"/>
<rect x="12.5312" y="88.5312" width="0.934259" height="0.934259" rx="0.467129" fill="#65E52A"/>
<rect x="25.5312" y="88.5312" width="0.934259" height="0.934259" rx="0.467129" fill="#65E52A"/>
<rect x="38.5312" y="88.5312" width="0.934259" height="0.934259" rx="0.467129" fill="#65E52A"/>
<rect x="51.5312" y="88.5312" width="0.934259" height="0.934259" rx="0.467129" fill="#65E52A"/>
<rect x="64.5312" y="88.5312" width="0.934259" height="0.934259" rx="0.467129" fill="#65E52A"/>
<rect x="77.5312" y="88.5312" width="0.934259" height="0.934259" rx="0.467129" fill="#65E52A"/>
<rect x="90.5312" y="88.5312" width="0.934259" height="0.934259" rx="0.467129" fill="#65E52A"/>
<rect x="103.531" y="88.5312" width="0.934259" height="0.934259" rx="0.467129" fill="#65E52A"/>
<rect x="116.531" y="88.5312" width="0.934259" height="0.934259" rx="0.467129" fill="#65E52A"/>
<rect x="129.531" y="88.5312" width="0.934259" height="0.934259" rx="0.467129" fill="#65E52A"/>
<rect x="142.531" y="88.5312" width="0.934259" height="0.934259" rx="0.467129" fill="#65E52A"/>
<rect x="155.531" y="88.5312" width="0.934259" height="0.934259" rx="0.467129" fill="#65E52A"/>
<rect x="168.531" y="88.5312" width="0.934259" height="0.934259" rx="0.467129" fill="#65E52A"/>
<rect x="181.531" y="88.5312" width="0.934259" height="0.934259" rx="0.467129" fill="#65E52A"/>
<rect x="194.531" y="88.5312" width="0.934259" height="0.934259" rx="0.467129" fill="#65E52A"/>
<rect x="207.531" y="88.5312" width="0.934259" height="0.934259" rx="0.467129" fill="#65E52A"/>
<rect x="220.531" y="88.5312" width="0.934259" height="0.934259" rx="0.467129" fill="#65E52A"/>
<rect x="233.531" y="88.5312" width="0.934259" height="0.934259" rx="0.467129" fill="#65E52A"/>
<rect x="246.531" y="88.5312" width="0.934259" height="0.934259" rx="0.467129" fill="#65E52A"/>
<rect x="259.531" y="88.5312" width="0.934259" height="0.934259" rx="0.467129" fill="#65E52A"/>
<rect x="272.531" y="88.5312" width="0.934259" height="0.934259" rx="0.467129" fill="#65E52A"/>
<rect x="285.531" y="88.5312" width="0.934259" height="0.934259" rx="0.467129" fill="#65E52A"/>
<rect x="298.531" y="88.5312" width="0.934259" height="0.934259" rx="0.467129" fill="#65E52A"/>
<rect x="-0.46875" y="101.531" width="0.934259" height="0.934259" rx="0.467129" fill="#65E52A"/>
<rect x="12.5312" y="101.531" width="0.934259" height="0.934259" rx="0.467129" fill="#65E52A"/>
<rect x="25.5312" y="101.531" width="0.934259" height="0.934259" rx="0.467129" fill="#65E52A"/>
<rect x="38.5312" y="101.531" width="0.934259" height="0.934259" rx="0.467129" fill="#65E52A"/>
<rect x="51.5312" y="101.531" width="0.934259" height="0.934259" rx="0.467129" fill="#65E52A"/>
<rect x="64.5312" y="101.531" width="0.934259" height="0.934259" rx="0.467129" fill="#65E52A"/>
<rect x="77.5312" y="101.531" width="0.934259" height="0.934259" rx="0.467129" fill="#65E52A"/>
<rect x="90.5312" y="101.531" width="0.934259" height="0.934259" rx="0.467129" fill="#65E52A"/>
<rect x="103.531" y="101.531" width="0.934259" height="0.934259" rx="0.467129" fill="#65E52A"/>
<rect x="116.531" y="101.531" width="0.934259" height="0.934259" rx="0.467129" fill="#65E52A"/>
<rect x="129.531" y="101.531" width="0.934259" height="0.934259" rx="0.467129" fill="#65E52A"/>
<rect x="142.531" y="101.531" width="0.934259" height="0.934259" rx="0.467129" fill="#65E52A"/>
<rect x="155.531" y="101.531" width="0.934259" height="0.934259" rx="0.467129" fill="#65E52A"/>
<rect x="168.531" y="101.531" width="0.934259" height="0.934259" rx="0.467129" fill="#65E52A"/>
<rect x="181.531" y="101.531" width="0.934259" height="0.934259" rx="0.467129" fill="#65E52A"/>
<rect x="194.531" y="101.531" width="0.934259" height="0.934259" rx="0.467129" fill="#65E52A"/>
<rect x="207.531" y="101.531" width="0.934259" height="0.934259" rx="0.467129" fill="#65E52A"/>
<rect x="220.531" y="101.531" width="0.934259" height="0.934259" rx="0.467129" fill="#65E52A"/>
<rect x="233.531" y="101.531" width="0.934259" height="0.934259" rx="0.467129" fill="#65E52A"/>
<rect x="246.531" y="101.531" width="0.934259" height="0.934259" rx="0.467129" fill="#65E52A"/>
<rect x="259.531" y="101.531" width="0.934259" height="0.934259" rx="0.467129" fill="#65E52A"/>
<rect x="272.531" y="101.531" width="0.934259" height="0.934259" rx="0.467129" fill="#65E52A"/>
<rect x="285.531" y="101.531" width="0.934259" height="0.934259" rx="0.467129" fill="#65E52A"/>
<rect x="298.531" y="101.531" width="0.934259" height="0.934259" rx="0.467129" fill="#65E52A"/>
<rect x="-0.46875" y="114.531" width="0.934259" height="0.934259" rx="0.467129" fill="#65E52A"/>
<rect x="12.5312" y="114.531" width="0.934259" height="0.934259" rx="0.467129" fill="#65E52A"/>
<rect x="25.5312" y="114.531" width="0.934259" height="0.934259" rx="0.467129" fill="#65E52A"/>
<rect x="38.5312" y="114.531" width="0.934259" height="0.934259" rx="0.467129" fill="#65E52A"/>
<rect x="51.5312" y="114.531" width="0.934259" height="0.934259" rx="0.467129" fill="#65E52A"/>
<rect x="64.5312" y="114.531" width="0.934259" height="0.934259" rx="0.467129" fill="#65E52A"/>
<rect x="77.5312" y="114.531" width="0.934259" height="0.934259" rx="0.467129" fill="#65E52A"/>
<rect x="90.5312" y="114.531" width="0.934259" height="0.934259" rx="0.467129" fill="#65E52A"/>
<rect x="103.531" y="114.531" width="0.934259" height="0.934259" rx="0.467129" fill="#65E52A"/>
<rect x="116.531" y="114.531" width="0.934259" height="0.934259" rx="0.467129" fill="#65E52A"/>
<rect x="129.531" y="114.531" width="0.934259" height="0.934259" rx="0.467129" fill="#65E52A"/>
<rect x="142.531" y="114.531" width="0.934259" height="0.934259" rx="0.467129" fill="#65E52A"/>
<rect x="155.531" y="114.531" width="0.934259" height="0.934259" rx="0.467129" fill="#65E52A"/>
<rect x="168.531" y="114.531" width="0.934259" height="0.934259" rx="0.467129" fill="#65E52A"/>
<rect x="181.531" y="114.531" width="0.934259" height="0.934259" rx="0.467129" fill="#65E52A"/>
<rect x="194.531" y="114.531" width="0.934259" height="0.934259" rx="0.467129" fill="#65E52A"/>
<rect x="207.531" y="114.531" width="0.934259" height="0.934259" rx="0.467129" fill="#65E52A"/>
<rect x="220.531" y="114.531" width="0.934259" height="0.934259" rx="0.467129" fill="#65E52A"/>
<rect x="233.531" y="114.531" width="0.934259" height="0.934259" rx="0.467129" fill="#65E52A"/>
<rect x="246.531" y="114.531" width="0.934259" height="0.934259" rx="0.467129" fill="#65E52A"/>
<rect x="259.531" y="114.531" width="0.934259" height="0.934259" rx="0.467129" fill="#65E52A"/>
<rect x="272.531" y="114.531" width="0.934259" height="0.934259" rx="0.467129" fill="#65E52A"/>
<rect x="285.531" y="114.531" width="0.934259" height="0.934259" rx="0.467129" fill="#65E52A"/>
<rect x="298.531" y="114.531" width="0.934259" height="0.934259" rx="0.467129" fill="#65E52A"/>
<rect x="-0.46875" y="127.531" width="0.934259" height="0.934259" rx="0.467129" fill="#65E52A"/>
<rect x="12.5312" y="127.531" width="0.934259" height="0.934259" rx="0.467129" fill="#65E52A"/>
<rect x="25.5312" y="127.531" width="0.934259" height="0.934259" rx="0.467129" fill="#65E52A"/>
<rect x="38.5312" y="127.531" width="0.934259" height="0.934259" rx="0.467129" fill="#65E52A"/>
<rect x="51.5312" y="127.531" width="0.934259" height="0.934259" rx="0.467129" fill="#65E52A"/>
<rect x="64.5312" y="127.531" width="0.934259" height="0.934259" rx="0.467129" fill="#65E52A"/>
<rect x="77.5312" y="127.531" width="0.934259" height="0.934259" rx="0.467129" fill="#65E52A"/>
<rect x="90.5312" y="127.531" width="0.934259" height="0.934259" rx="0.467129" fill="#65E52A"/>
<rect x="103.531" y="127.531" width="0.934259" height="0.934259" rx="0.467129" fill="#65E52A"/>
<rect x="116.531" y="127.531" width="0.934259" height="0.934259" rx="0.467129" fill="#65E52A"/>
<rect x="129.531" y="127.531" width="0.934259" height="0.934259" rx="0.467129" fill="#65E52A"/>
<rect x="142.531" y="127.531" width="0.934259" height="0.934259" rx="0.467129" fill="#65E52A"/>
<rect x="155.531" y="127.531" width="0.934259" height="0.934259" rx="0.467129" fill="#65E52A"/>
<rect x="168.531" y="127.531" width="0.934259" height="0.934259" rx="0.467129" fill="#65E52A"/>
<rect x="181.531" y="127.531" width="0.934259" height="0.934259" rx="0.467129" fill="#65E52A"/>
<rect x="194.531" y="127.531" width="0.934259" height="0.934259" rx="0.467129" fill="#65E52A"/>
<rect x="207.531" y="127.531" width="0.934259" height="0.934259" rx="0.467129" fill="#65E52A"/>
<rect x="220.531" y="127.531" width="0.934259" height="0.934259" rx="0.467129" fill="#65E52A"/>
<rect x="233.531" y="127.531" width="0.934259" height="0.934259" rx="0.467129" fill="#65E52A"/>
<rect x="246.531" y="127.531" width="0.934259" height="0.934259" rx="0.467129" fill="#65E52A"/>
<rect x="259.531" y="127.531" width="0.934259" height="0.934259" rx="0.467129" fill="#65E52A"/>
<rect x="272.531" y="127.531" width="0.934259" height="0.934259" rx="0.467129" fill="#65E52A"/>
<rect x="285.531" y="127.531" width="0.934259" height="0.934259" rx="0.467129" fill="#65E52A"/>
<rect x="298.531" y="127.531" width="0.934259" height="0.934259" rx="0.467129" fill="#65E52A"/>
<rect x="-0.46875" y="140.531" width="0.934259" height="0.934259" rx="0.467129" fill="#65E52A"/>
<rect x="12.5312" y="140.531" width="0.934259" height="0.934259" rx="0.467129" fill="#65E52A"/>
<rect x="25.5312" y="140.531" width="0.934259" height="0.934259" rx="0.467129" fill="#65E52A"/>
<rect x="38.5312" y="140.531" width="0.934259" height="0.934259" rx="0.467129" fill="#65E52A"/>
<rect x="51.5312" y="140.531" width="0.934259" height="0.934259" rx="0.467129" fill="#65E52A"/>
<rect x="64.5312" y="140.531" width="0.934259" height="0.934259" rx="0.467129" fill="#65E52A"/>
<rect x="77.5312" y="140.531" width="0.934259" height="0.934259" rx="0.467129" fill="#65E52A"/>
<rect x="90.5312" y="140.531" width="0.934259" height="0.934259" rx="0.467129" fill="#65E52A"/>
<rect x="103.531" y="140.531" width="0.934259" height="0.934259" rx="0.467129" fill="#65E52A"/>
<rect x="116.531" y="140.531" width="0.934259" height="0.934259" rx="0.467129" fill="#65E52A"/>
<rect x="129.531" y="140.531" width="0.934259" height="0.934259" rx="0.467129" fill="#65E52A"/>
<rect x="142.531" y="140.531" width="0.934259" height="0.934259" rx="0.467129" fill="#65E52A"/>
<rect x="155.531" y="140.531" width="0.934259" height="0.934259" rx="0.467129" fill="#65E52A"/>
<rect x="168.531" y="140.531" width="0.934259" height="0.934259" rx="0.467129" fill="#65E52A"/>
<rect x="181.531" y="140.531" width="0.934259" height="0.934259" rx="0.467129" fill="#65E52A"/>
<rect x="194.531" y="140.531" width="0.934259" height="0.934259" rx="0.467129" fill="#65E52A"/>
<rect x="207.531" y="140.531" width="0.934259" height="0.934259" rx="0.467129" fill="#65E52A"/>
<rect x="220.531" y="140.531" width="0.934259" height="0.934259" rx="0.467129" fill="#65E52A"/>
<rect x="233.531" y="140.531" width="0.934259" height="0.934259" rx="0.467129" fill="#65E52A"/>
<rect x="246.531" y="140.531" width="0.934259" height="0.934259" rx="0.467129" fill="#65E52A"/>
<rect x="259.531" y="140.531" width="0.934259" height="0.934259" rx="0.467129" fill="#65E52A"/>
<rect x="272.531" y="140.531" width="0.934259" height="0.934259" rx="0.467129" fill="#65E52A"/>
<rect x="285.531" y="140.531" width="0.934259" height="0.934259" rx="0.467129" fill="#65E52A"/>
<rect x="298.531" y="140.531" width="0.934259" height="0.934259" rx="0.467129" fill="#65E52A"/>
<rect x="-0.46875" y="153.531" width="0.934259" height="0.934259" rx="0.467129" fill="#65E52A"/>
<rect x="12.5312" y="153.531" width="0.934259" height="0.934259" rx="0.467129" fill="#65E52A"/>
<rect x="25.5312" y="153.531" width="0.934259" height="0.934259" rx="0.467129" fill="#65E52A"/>
<rect x="38.5312" y="153.531" width="0.934259" height="0.934259" rx="0.467129" fill="#65E52A"/>
<rect x="51.5312" y="153.531" width="0.934259" height="0.934259" rx="0.467129" fill="#65E52A"/>
<rect x="64.5312" y="153.531" width="0.934259" height="0.934259" rx="0.467129" fill="#65E52A"/>
<rect x="77.5312" y="153.531" width="0.934259" height="0.934259" rx="0.467129" fill="#65E52A"/>
<rect x="90.5312" y="153.531" width="0.934259" height="0.934259" rx="0.467129" fill="#65E52A"/>
<rect x="103.531" y="153.531" width="0.934259" height="0.934259" rx="0.467129" fill="#65E52A"/>
<rect x="116.531" y="153.531" width="0.934259" height="0.934259" rx="0.467129" fill="#65E52A"/>
<rect x="129.531" y="153.531" width="0.934259" height="0.934259" rx="0.467129" fill="#65E52A"/>
<rect x="142.531" y="153.531" width="0.934259" height="0.934259" rx="0.467129" fill="#65E52A"/>
<rect x="155.531" y="153.531" width="0.934259" height="0.934259" rx="0.467129" fill="#65E52A"/>
<rect x="168.531" y="153.531" width="0.934259" height="0.934259" rx="0.467129" fill="#65E52A"/>
<rect x="181.531" y="153.531" width="0.934259" height="0.934259" rx="0.467129" fill="#65E52A"/>
<rect x="194.531" y="153.531" width="0.934259" height="0.934259" rx="0.467129" fill="#65E52A"/>
<rect x="207.531" y="153.531" width="0.934259" height="0.934259" rx="0.467129" fill="#65E52A"/>
<rect x="220.531" y="153.531" width="0.934259" height="0.934259" rx="0.467129" fill="#65E52A"/>
<rect x="233.531" y="153.531" width="0.934259" height="0.934259" rx="0.467129" fill="#65E52A"/>
<rect x="246.531" y="153.531" width="0.934259" height="0.934259" rx="0.467129" fill="#65E52A"/>
<rect x="259.531" y="153.531" width="0.934259" height="0.934259" rx="0.467129" fill="#65E52A"/>
<rect x="272.531" y="153.531" width="0.934259" height="0.934259" rx="0.467129" fill="#65E52A"/>
<rect x="285.531" y="153.531" width="0.934259" height="0.934259" rx="0.467129" fill="#65E52A"/>
<rect x="298.531" y="153.531" width="0.934259" height="0.934259" rx="0.467129" fill="#65E52A"/>
</g>
<g clip-path="url(#clip2_4033_80)">
<rect x="-0.46875" y="-0.46875" width="0.934259" height="0.934259" rx="0.467129" fill="#65E52A"/>
<rect x="12.5312" y="-0.46875" width="0.934259" height="0.934259" rx="0.467129" fill="#65E52A"/>
<rect x="25.5312" y="-0.46875" width="0.934259" height="0.934259" rx="0.467129" fill="#65E52A"/>
<rect x="38.5312" y="-0.46875" width="0.934259" height="0.934259" rx="0.467129" fill="#65E52A"/>
<rect x="51.5312" y="-0.46875" width="0.934259" height="0.934259" rx="0.467129" fill="#65E52A"/>
<rect x="64.5312" y="-0.46875" width="0.934259" height="0.934259" rx="0.467129" fill="#65E52A"/>
<rect x="77.5312" y="-0.46875" width="0.934259" height="0.934259" rx="0.467129" fill="#65E52A"/>
<rect x="90.5312" y="-0.46875" width="0.934259" height="0.934259" rx="0.467129" fill="#65E52A"/>
<rect x="103.531" y="-0.46875" width="0.934259" height="0.934259" rx="0.467129" fill="#65E52A"/>
<rect x="116.531" y="-0.46875" width="0.934259" height="0.934259" rx="0.467129" fill="#65E52A"/>
<rect x="129.531" y="-0.46875" width="0.934259" height="0.934259" rx="0.467129" fill="#65E52A"/>
<rect x="142.531" y="-0.46875" width="0.934259" height="0.934259" rx="0.467129" fill="#65E52A"/>
<rect x="155.531" y="-0.46875" width="0.934259" height="0.934259" rx="0.467129" fill="#65E52A"/>
<rect x="168.531" y="-0.46875" width="0.934259" height="0.934259" rx="0.467129" fill="#65E52A"/>
<rect x="181.531" y="-0.46875" width="0.934259" height="0.934259" rx="0.467129" fill="#65E52A"/>
<rect x="194.531" y="-0.46875" width="0.934259" height="0.934259" rx="0.467129" fill="#65E52A"/>
<rect x="207.531" y="-0.46875" width="0.934259" height="0.934259" rx="0.467129" fill="#65E52A"/>
<rect x="220.531" y="-0.46875" width="0.934259" height="0.934259" rx="0.467129" fill="#65E52A"/>
<rect x="233.531" y="-0.46875" width="0.934259" height="0.934259" rx="0.467129" fill="#65E52A"/>
<rect x="246.531" y="-0.46875" width="0.934259" height="0.934259" rx="0.467129" fill="#65E52A"/>
<rect x="259.531" y="-0.46875" width="0.934259" height="0.934259" rx="0.467129" fill="#65E52A"/>
<rect x="272.531" y="-0.46875" width="0.934259" height="0.934259" rx="0.467129" fill="#65E52A"/>
<rect x="285.531" y="-0.46875" width="0.934259" height="0.934259" rx="0.467129" fill="#65E52A"/>
<rect x="298.531" y="-0.46875" width="0.934259" height="0.934259" rx="0.467129" fill="#65E52A"/>
<rect x="-0.46875" y="12.5312" width="0.934259" height="0.934259" rx="0.467129" fill="#65E52A"/>
<rect x="12.5312" y="12.5312" width="0.934259" height="0.934259" rx="0.467129" fill="#65E52A"/>
<rect x="25.5312" y="12.5312" width="0.934259" height="0.934259" rx="0.467129" fill="#65E52A"/>
<rect x="38.5312" y="12.5312" width="0.934259" height="0.934259" rx="0.467129" fill="#65E52A"/>
<rect x="51.5312" y="12.5312" width="0.934259" height="0.934259" rx="0.467129" fill="#65E52A"/>
<rect x="64.5312" y="12.5312" width="0.934259" height="0.934259" rx="0.467129" fill="#65E52A"/>
<rect x="77.5312" y="12.5312" width="0.934259" height="0.934259" rx="0.467129" fill="#65E52A"/>
<rect x="90.5312" y="12.5312" width="0.934259" height="0.934259" rx="0.467129" fill="#65E52A"/>
<rect x="103.531" y="12.5312" width="0.934259" height="0.934259" rx="0.467129" fill="#65E52A"/>
<rect x="116.531" y="12.5312" width="0.934259" height="0.934259" rx="0.467129" fill="#65E52A"/>
<rect x="129.531" y="12.5312" width="0.934259" height="0.934259" rx="0.467129" fill="#65E52A"/>
<rect x="142.531" y="12.5312" width="0.934259" height="0.934259" rx="0.467129" fill="#65E52A"/>
<rect x="155.531" y="12.5312" width="0.934259" height="0.934259" rx="0.467129" fill="#65E52A"/>
<rect x="168.531" y="12.5312" width="0.934259" height="0.934259" rx="0.467129" fill="#65E52A"/>
<rect x="181.531" y="12.5312" width="0.934259" height="0.934259" rx="0.467129" fill="#65E52A"/>
<rect x="194.531" y="12.5312" width="0.934259" height="0.934259" rx="0.467129" fill="#65E52A"/>
<rect x="207.531" y="12.5312" width="0.934259" height="0.934259" rx="0.467129" fill="#65E52A"/>
<rect x="220.531" y="12.5312" width="0.934259" height="0.934259" rx="0.467129" fill="#65E52A"/>
<rect x="233.531" y="12.5312" width="0.934259" height="0.934259" rx="0.467129" fill="#65E52A"/>
<rect x="246.531" y="12.5312" width="0.934259" height="0.934259" rx="0.467129" fill="#65E52A"/>
<rect x="259.531" y="12.5312" width="0.934259" height="0.934259" rx="0.467129" fill="#65E52A"/>
<rect x="272.531" y="12.5312" width="0.934259" height="0.934259" rx="0.467129" fill="#65E52A"/>
<rect x="285.531" y="12.5312" width="0.934259" height="0.934259" rx="0.467129" fill="#65E52A"/>
<rect x="298.531" y="12.5312" width="0.934259" height="0.934259" rx="0.467129" fill="#65E52A"/>
<rect x="-0.46875" y="25.5312" width="0.934259" height="0.934259" rx="0.467129" fill="#65E52A"/>
<rect x="12.5312" y="25.5312" width="0.934259" height="0.934259" rx="0.467129" fill="#65E52A"/>
<rect x="25.5312" y="25.5312" width="0.934259" height="0.934259" rx="0.467129" fill="#65E52A"/>
<rect x="38.5312" y="25.5312" width="0.934259" height="0.934259" rx="0.467129" fill="#65E52A"/>
<rect x="51.5312" y="25.5312" width="0.934259" height="0.934259" rx="0.467129" fill="#65E52A"/>
<rect x="64.5312" y="25.5312" width="0.934259" height="0.934259" rx="0.467129" fill="#65E52A"/>
<rect x="77.5312" y="25.5312" width="0.934259" height="0.934259" rx="0.467129" fill="#65E52A"/>
<rect x="90.5312" y="25.5312" width="0.934259" height="0.934259" rx="0.467129" fill="#65E52A"/>
<rect x="103.531" y="25.5312" width="0.934259" height="0.934259" rx="0.467129" fill="#65E52A"/>
<rect x="116.531" y="25.5312" width="0.934259" height="0.934259" rx="0.467129" fill="#65E52A"/>
<rect x="129.531" y="25.5312" width="0.934259" height="0.934259" rx="0.467129" fill="#65E52A"/>
<rect x="142.531" y="25.5312" width="0.934259" height="0.934259" rx="0.467129" fill="#65E52A"/>
<rect x="155.531" y="25.5312" width="0.934259" height="0.934259" rx="0.467129" fill="#65E52A"/>
<rect x="168.531" y="25.5312" width="0.934259" height="0.934259" rx="0.467129" fill="#65E52A"/>
<rect x="181.531" y="25.5312" width="0.934259" height="0.934259" rx="0.467129" fill="#65E52A"/>
<rect x="194.531" y="25.5312" width="0.934259" height="0.934259" rx="0.467129" fill="#65E52A"/>
<rect x="207.531" y="25.5312" width="0.934259" height="0.934259" rx="0.467129" fill="#65E52A"/>
<rect x="220.531" y="25.5312" width="0.934259" height="0.934259" rx="0.467129" fill="#65E52A"/>
<rect x="233.531" y="25.5312" width="0.934259" height="0.934259" rx="0.467129" fill="#65E52A"/>
<rect x="246.531" y="25.5312" width="0.934259" height="0.934259" rx="0.467129" fill="#65E52A"/>
<rect x="259.531" y="25.5312" width="0.934259" height="0.934259" rx="0.467129" fill="#65E52A"/>
<rect x="272.531" y="25.5312" width="0.934259" height="0.934259" rx="0.467129" fill="#65E52A"/>
<rect x="285.531" y="25.5312" width="0.934259" height="0.934259" rx="0.467129" fill="#65E52A"/>
<rect x="298.531" y="25.5312" width="0.934259" height="0.934259" rx="0.467129" fill="#65E52A"/>
<rect x="-0.46875" y="38.5312" width="0.934259" height="0.934259" rx="0.467129" fill="#65E52A"/>
<rect x="12.5312" y="38.5312" width="0.934259" height="0.934259" rx="0.467129" fill="#65E52A"/>
<rect x="25.5312" y="38.5312" width="0.934259" height="0.934259" rx="0.467129" fill="#65E52A"/>
<rect x="38.5312" y="38.5312" width="0.934259" height="0.934259" rx="0.467129" fill="#65E52A"/>
<rect x="51.5312" y="38.5312" width="0.934259" height="0.934259" rx="0.467129" fill="#65E52A"/>
<rect x="64.5312" y="38.5312" width="0.934259" height="0.934259" rx="0.467129" fill="#65E52A"/>
<rect x="77.5312" y="38.5312" width="0.934259" height="0.934259" rx="0.467129" fill="#65E52A"/>
<rect x="90.5312" y="38.5312" width="0.934259" height="0.934259" rx="0.467129" fill="#65E52A"/>
<rect x="103.531" y="38.5312" width="0.934259" height="0.934259" rx="0.467129" fill="#65E52A"/>
<rect x="116.531" y="38.5312" width="0.934259" height="0.934259" rx="0.467129" fill="#65E52A"/>
<rect x="129.531" y="38.5312" width="0.934259" height="0.934259" rx="0.467129" fill="#65E52A"/>
<rect x="142.531" y="38.5312" width="0.934259" height="0.934259" rx="0.467129" fill="#65E52A"/>
<rect x="155.531" y="38.5312" width="0.934259" height="0.934259" rx="0.467129" fill="#65E52A"/>
<rect x="168.531" y="38.5312" width="0.934259" height="0.934259" rx="0.467129" fill="#65E52A"/>
<rect x="181.531" y="38.5312" width="0.934259" height="0.934259" rx="0.467129" fill="#65E52A"/>
<rect x="194.531" y="38.5312" width="0.934259" height="0.934259" rx="0.467129" fill="#65E52A"/>
<rect x="207.531" y="38.5312" width="0.934259" height="0.934259" rx="0.467129" fill="#65E52A"/>
<rect x="220.531" y="38.5312" width="0.934259" height="0.934259" rx="0.467129" fill="#65E52A"/>
<rect x="233.531" y="38.5312" width="0.934259" height="0.934259" rx="0.467129" fill="#65E52A"/>
<rect x="246.531" y="38.5312" width="0.934259" height="0.934259" rx="0.467129" fill="#65E52A"/>
<rect x="259.531" y="38.5312" width="0.934259" height="0.934259" rx="0.467129" fill="#65E52A"/>
<rect x="272.531" y="38.5312" width="0.934259" height="0.934259" rx="0.467129" fill="#65E52A"/>
<rect x="285.531" y="38.5312" width="0.934259" height="0.934259" rx="0.467129" fill="#65E52A"/>
<rect x="298.531" y="38.5312" width="0.934259" height="0.934259" rx="0.467129" fill="#65E52A"/>
</g>
<defs>
<clipPath id="clip0_4033_80">
<rect width="303" height="110" fill="white" transform="translate(0 169)"/>
</clipPath>
<clipPath id="clip1_4033_80">
<rect width="303" height="110" fill="white" transform="translate(0 50)"/>
</clipPath>
<clipPath id="clip2_4033_80">
<rect width="303" height="45" fill="white"/>
</clipPath>
</defs>
</svg>
