<svg width="20" height="20" viewBox="0 0 20 20" fill="none" xmlns="http://www.w3.org/2000/svg">
<rect x="1" y="1" width="18" height="18" stroke="#65E52A" stroke-width="2"/>
<path d="M13.3537 7.00284L13.3537 4.99985L15.4978 4.99985L15.4978 7.00284L13.3537 7.00284ZM11.2096 8.99834L11.2096 6.99535L13.3537 6.99535L13.3537 8.99834L11.2096 8.99834ZM9.06545 11.0013L9.06545 8.99834L11.2096 8.99834L11.2096 11.0013L9.06545 11.0013ZM6.92938 13.0043L6.92938 11.0013L9.07349 11.0013L9.07349 13.0043L6.92938 13.0043ZM4.78528 14.9998L4.78596 12.9968L6.92938 12.9968L6.92938 14.9998L4.78528 14.9998Z" fill="#65E52A"/>
<path d="M6.85602 8.99984L6.85602 6.99684L9.00012 6.99684L9.00012 8.99984L6.85602 8.99984Z" fill="#65E52A"/>
<path d="M4.71484 6.99984L4.71484 4.99684L6.85894 4.99684L6.85894 6.99984L4.71484 6.99984Z" fill="#65E52A"/>
<path d="M11.2096 13.0043L11.2096 11.0013L13.3537 11.0013L13.3537 13.0043L11.2096 13.0043Z" fill="#65E52A"/>
<path d="M13.3559 15L13.3559 12.997L15.5 12.997L15.5 15L13.3559 15Z" fill="#65E52A"/>
</svg>
